<?xml version="1.0" encoding="UTF-8" standalone="no" ?>
<!DOCTYPE svg PUBLIC "-//W3C//DTD SVG 1.1//EN" "http://www.w3.org/Graphics/SVG/1.1/DTD/svg11.dtd">
<svg xmlns="http://www.w3.org/2000/svg" xmlns:xlink="http://www.w3.org/1999/xlink" version="1.1" width="640" height="480" viewBox="0 0 640 480" xml:space="preserve">
<desc>Created with Fabric.js 3.6.3</desc>
<defs>
</defs>
<g transform="matrix(0.82 0 0 0.88 318.5 211.19)"  >
<g style=""   >
		<g transform="matrix(1 0 0 1 0 -278.16)"  >
<path style="stroke: none; stroke-width: 1; stroke-dasharray: none; stroke-linecap: butt; stroke-dashoffset: 0; stroke-linejoin: miter; stroke-miterlimit: 4; fill: rgb(228,228,228); fill-rule: nonzero; opacity: 1;"  transform=" translate(-600, -171.84)" d="M 997.07789 189.37527 H 202.92213 a 4.45318 4.45318 0 0 1 -4.44832 -4.44831 v -26.1662 a 4.45318 4.45318 0 0 1 4.44832 -4.44831 H 997.07789 a 4.45317 4.45317 0 0 1 4.4483 4.44831 V 184.927 A 4.45318 4.45318 0 0 1 997.07789 189.37527 Z" stroke-linecap="round" />
</g>
		<g transform="matrix(1 0 0 1 -375.71 -279.43)" id="a35e044f-57c7-4e60-ba2c-0b63f07d3a91"  >
<circle style="stroke: none; stroke-width: 1; stroke-dasharray: none; stroke-linecap: butt; stroke-dashoffset: 0; stroke-linejoin: miter; stroke-miterlimit: 4; fill: rgb(255,255,255); fill-rule: nonzero; opacity: 1;"  cx="0" cy="0" r="6.3155" />
</g>
		<g transform="matrix(1 0 0 1 -351.74 -279.43)" id="b8ca9947-3ca9-4995-aa34-7c8526cbf832"  >
<circle style="stroke: none; stroke-width: 1; stroke-dasharray: none; stroke-linecap: butt; stroke-dashoffset: 0; stroke-linejoin: miter; stroke-miterlimit: 4; fill: rgb(255,255,255); fill-rule: nonzero; opacity: 1;"  cx="0" cy="0" r="6.3155" />
</g>
		<g transform="matrix(1 0 0 1 -327.77 -279.43)" id="a31b64b8-966e-40be-99c3-e775622dac5b"  >
<circle style="stroke: none; stroke-width: 1; stroke-dasharray: none; stroke-linecap: butt; stroke-dashoffset: 0; stroke-linejoin: miter; stroke-miterlimit: 4; fill: rgb(255,255,255); fill-rule: nonzero; opacity: 1;"  cx="0" cy="0" r="6.3155" />
</g>
		<g transform="matrix(1 0 0 1 359.79 -285.82)"  >
<path style="stroke: none; stroke-width: 1; stroke-dasharray: none; stroke-linecap: butt; stroke-dashoffset: 0; stroke-linejoin: miter; stroke-miterlimit: 4; fill: rgb(255,255,255); fill-rule: nonzero; opacity: 1;"  transform=" translate(-959.79, -164.18)" d="M 973.59083 166.2207 H 945.9867 a 2.04475 2.04475 0 0 1 0 -4.08949 h 27.60413 a 2.04475 2.04475 0 0 1 0.00769 4.08949 Z" stroke-linecap="round" />
</g>
		<g transform="matrix(1 0 0 1 359.79 -278.16)"  >
<path style="stroke: none; stroke-width: 1; stroke-dasharray: none; stroke-linecap: butt; stroke-dashoffset: 0; stroke-linejoin: miter; stroke-miterlimit: 4; fill: rgb(255,255,255); fill-rule: nonzero; opacity: 1;"  transform=" translate(-959.79, -171.84)" d="M 973.59083 173.88852 H 945.9867 a 2.04475 2.04475 0 0 1 0 -4.08949 h 27.60413 a 2.04475 2.04475 0 0 1 0.00769 4.08949 Z" stroke-linecap="round" />
</g>
		<g transform="matrix(1 0 0 1 359.79 -270.49)"  >
<path style="stroke: none; stroke-width: 1; stroke-dasharray: none; stroke-linecap: butt; stroke-dashoffset: 0; stroke-linejoin: miter; stroke-miterlimit: 4; fill: rgb(255,255,255); fill-rule: nonzero; opacity: 1;"  transform=" translate(-959.79, -179.51)" d="M 973.59083 181.55634 H 945.9867 a 2.04475 2.04475 0 0 1 0 -4.0895 h 27.60413 a 2.04475 2.04475 0 0 1 0.00769 4.0895 Z" stroke-linecap="round" />
</g>
		<g transform="matrix(1 0 0 1 -152.43 231.54)"  >
<path style="stroke: none; stroke-width: 1; stroke-dasharray: none; stroke-linecap: butt; stroke-dashoffset: 0; stroke-linejoin: miter; stroke-miterlimit: 4; fill: rgb(240,240,240); fill-rule: nonzero; opacity: 1;"  transform=" translate(-447.57, -681.54)" d="M 424.91688 674.27641 c 2.92224 -23.4981 17.48511 -46.65063 39.89523 -54.29754 a 109.09788 109.09788 0 0 0 0.0054 74.90374 c 3.44358 9.31476 8.24353 19.31641 5.0044 28.70429 c -2.01535 5.84137 -6.94565 10.31055 -12.4567 13.105 c -5.51141 2.79443 -11.6279 4.12634 -17.66788 5.43158 l -1.18869 0.98315 C 428.9203 721.45561 421.99464 697.77458 424.91688 674.27641 Z" stroke-linecap="round" />
</g>
		<g transform="matrix(1 0 0 1 -148.42 230.97)"  >
<path style="stroke: none; stroke-width: 1; stroke-dasharray: none; stroke-linecap: butt; stroke-dashoffset: 0; stroke-linejoin: miter; stroke-miterlimit: 4; fill: rgb(255,255,255); fill-rule: nonzero; opacity: 1;"  transform=" translate(-451.58, -680.97)" d="M 465.03449 620.4232 a 93.25009 93.25009 0 0 0 -23.18185 52.4812 a 40.15631 40.15631 0 0 0 0.45679 12.57361 a 23.03162 23.03162 0 0 0 5.72827 10.68256 c 2.58185 2.83667 5.5513 5.43933 7.39865 8.85425 a 14.10232 14.10232 0 0 1 0.689 11.51263 c -1.631 4.678 -4.84564 8.491 -8.11886 12.11054 c -3.63428 4.01879 -7.47284 8.13549 -9.0177 13.46337 c -0.1872 0.64557 -1.17789 0.31739 -0.991 -0.32721 c 2.68777 -9.26959 11.68607 -14.53485 15.97736 -22.88385 c 2.00238 -3.89581 2.84286 -8.41864 0.96566 -12.531 c -1.64154 -3.59613 -4.70135 -6.28259 -7.34039 -9.1322 a 24.57672 24.57672 0 0 1 -5.9902 -10.23658 a 37.12347 37.12347 0 0 1 -0.93851 -12.50964 a 90.469 90.469 0 0 1 6.60736 -27.49286 A 94.90381 94.90381 0 0 1 464.344 619.64061 c 0.44623 -0.4997 1.13385 0.28632 0.69055 0.78271 Z" stroke-linecap="round" />
</g>
		<g transform="matrix(1 0 0 1 -162.87 209.03)"  >
<path style="stroke: none; stroke-width: 1; stroke-dasharray: none; stroke-linecap: butt; stroke-dashoffset: 0; stroke-linejoin: miter; stroke-miterlimit: 4; fill: rgb(255,255,255); fill-rule: nonzero; opacity: 1;"  transform=" translate(-437.13, -659.03)" d="M 442.13355 666.58873 A 13.99051 13.99051 0 0 1 431.484 651.93315 a 0.52227 0.52227 0 0 1 1.0426 0.05206 a 12.95492 12.95492 0 0 0 9.93414 13.61249 C 443.11408 665.753 442.78315 666.74315 442.13355 666.58873 Z" stroke-linecap="round" />
</g>
		<g transform="matrix(1 0 0 1 -147.06 237.46)"  >
<path style="stroke: none; stroke-width: 1; stroke-dasharray: none; stroke-linecap: butt; stroke-dashoffset: 0; stroke-linejoin: miter; stroke-miterlimit: 4; fill: rgb(255,255,255); fill-rule: nonzero; opacity: 1;"  transform=" translate(-452.94, -687.46)" d="M 446.53916 694.89464 a 26.96549 26.96549 0 0 0 12.04175 -15.53015 c 0.18945 -0.64484 1.18024 -0.3169 0.991 0.32721 a 28.04826 28.04826 0 0 1 -12.56339 16.13507 C 446.42982 696.17 445.9636 695.23607 446.53916 694.89464 Z" stroke-linecap="round" />
</g>
		<g transform="matrix(1 0 0 1 -143.89 188.63)"  >
<path style="stroke: none; stroke-width: 1; stroke-dasharray: none; stroke-linecap: butt; stroke-dashoffset: 0; stroke-linejoin: miter; stroke-miterlimit: 4; fill: rgb(255,255,255); fill-rule: nonzero; opacity: 1;"  transform=" translate(-456.11, -638.63)" d="M 452.33448 637.95433 a 7.91916 7.91916 0 0 0 7.50482 -0.381 c 0.57407 -0.35046 1.03971 0.584 0.46936 0.93213 a 8.87421 8.87421 0 0 1 -8.30139 0.43988 a 0.53934 0.53934 0 0 1 -0.33191 -0.65912 A 0.52444 0.52444 0 0 1 452.33448 637.95433 Z" stroke-linecap="round" />
</g>
		<g transform="matrix(1 0 0 1 -114.44 251.97)"  >
<path style="stroke: none; stroke-width: 1; stroke-dasharray: none; stroke-linecap: butt; stroke-dashoffset: 0; stroke-linejoin: miter; stroke-miterlimit: 4; fill: rgb(240,240,240); fill-rule: nonzero; opacity: 1;"  transform=" translate(-485.56, -701.97)" d="M 533.12128 661.94939 c -0.35223 0.229 -0.70446 0.458 -1.05712 0.69586 a 104.2919 104.2919 0 0 0 -13.335 10.411 c -0.326 0.29071 -0.652 0.59015 -0.969 0.88965 a 109.94776 109.94776 0 0 0 -23.87842 32.68658 a 106.77244 106.77244 0 0 0 -5.84863 15.13214 c -2.15814 7.16095 -3.92835 15.09687 -8.20032 20.95423 a 18.31835 18.31835 0 0 1 -1.427 1.76159 H 439.80021 c -0.08774 -0.044 -0.1759 -0.07928 -0.26407 -0.12335 l -1.54141 0.0705 c 0.06192 -0.273 0.132 -0.55493 0.194 -0.82794 c 0.03528 -0.15857 0.07913 -0.31708 0.11441 -0.47565 c 0.02624 -0.10571 0.05289 -0.21143 0.07052 -0.30829 c 0.00861 -0.03522 0.01764 -0.07043 0.02625 -0.09686 c 0.01764 -0.09687 0.04431 -0.185 0.06192 -0.27307 q 0.58122 -2.365 1.19778 -4.72992 c 0 -0.00885 0 -0.00885 0.00861 -0.01764 a 156.9946 156.9946 0 0 1 13.212 -34.686 c 0.17633 -0.32586 0.35223 -0.66058 0.5462 -0.98651 a 101.88533 101.88533 0 0 1 9.15164 -13.88147 a 90.0712 90.0712 0 0 1 5.99832 -6.86145 a 74.90082 74.90082 0 0 1 18.74329 -14.04 c 13.84637 -7.31067 29.87671 -10.11157 44.67444 -5.64593 C 532.37254 661.71165 532.74284 661.8261 533.12128 661.94939 Z" stroke-linecap="round" />
</g>
		<g transform="matrix(1 0 0 1 -114.17 252.7)"  >
<path style="stroke: none; stroke-width: 1; stroke-dasharray: none; stroke-linecap: butt; stroke-dashoffset: 0; stroke-linejoin: miter; stroke-miterlimit: 4; fill: rgb(255,255,255); fill-rule: nonzero; opacity: 1;"  transform=" translate(-485.83, -702.7)" d="M 533.03452 662.43938 A 93.24986 93.24986 0 0 0 482.9278 690.3856 a 40.1569 40.1569 0 0 0 -7.20544 10.31434 a 23.03161 23.03161 0 0 0 -1.858 11.97827 c 0.35357 3.81939 1.15756 7.68524 0.57657 11.52411 a 14.10252 14.10252 0 0 1 -6.38129 9.607 c -4.11878 2.75317 -8.98114 3.86218 -13.77384 4.7815 c -5.32138 1.02069 -10.86477 1.99658 -15.306 5.32049 c -0.53812 0.40271 -1.13157 -0.45581 -0.59427 -0.85791 c 7.727 -5.783 18.08166 -4.56946 26.53466 -8.652 c 3.94434 -1.905 7.33847 -5.01019 8.31559 -9.424 c 0.85443 -3.85962 0.02877 -7.84686 -0.36267 -11.711 a 24.57678 24.57678 0 0 1 1.38028 -11.77984 a 37.12469 37.12469 0 0 1 6.78231 -10.55329 a 90.47 90.47 0 0 1 21.82822 -17.97345 a 94.90373 94.90373 0 0 1 30.09042 -11.56115 c 0.65714 -0.13031 0.73294 0.91125 0.08011 1.04071 Z" stroke-linecap="round" />
</g>
		<g transform="matrix(1 0 0 1 -114 226.47)"  >
<path style="stroke: none; stroke-width: 1; stroke-dasharray: none; stroke-linecap: butt; stroke-dashoffset: 0; stroke-linejoin: miter; stroke-miterlimit: 4; fill: rgb(255,255,255); fill-rule: nonzero; opacity: 1;"  transform=" translate(-486, -676.47)" d="M 486.95457 685.512 a 13.99047 13.99047 0 0 1 0.32061 -18.1134 c 0.44547 -0.50245 1.24717 0.16619 0.80109 0.66931 a 12.95487 12.95487 0 0 0 -0.26379 16.84985 C 488.24061 685.43517 487.38026 686.02647 486.95457 685.512 Z" stroke-linecap="round" />
</g>
		<g transform="matrix(1 0 0 1 -116.99 258.74)"  >
<path style="stroke: none; stroke-width: 1; stroke-dasharray: none; stroke-linecap: butt; stroke-dashoffset: 0; stroke-linejoin: miter; stroke-miterlimit: 4; fill: rgb(255,255,255); fill-rule: nonzero; opacity: 1;"  transform=" translate(-483.01, -708.74)" d="M 473.43006 710.76518 a 26.96573 26.96573 0 0 0 18.96488 -5.15 c 0.53952 -0.40082 1.13311 0.45758 0.59426 0.85791 a 28.04838 28.04838 0 0 1 -19.74557 5.319 C 472.5749 711.7177 472.765 710.69127 473.43006 710.76518 Z" stroke-linecap="round" />
</g>
		<g transform="matrix(1 0 0 1 -84.81 221.3)"  >
<path style="stroke: none; stroke-width: 1; stroke-dasharray: none; stroke-linecap: butt; stroke-dashoffset: 0; stroke-linejoin: miter; stroke-miterlimit: 4; fill: rgb(255,255,255); fill-rule: nonzero; opacity: 1;"  transform=" translate(-515.19, -671.3)" d="M 512.3393 668.7907 a 7.91928 7.91928 0 0 0 6.22156 4.21423 c 0.66934 0.06579 0.47855 1.09222 -0.18643 1.02685 a 8.87419 8.87419 0 0 1 -6.893 -4.64679 a 0.53933 0.53933 0 0 1 0.13181 -0.72607 a 0.52444 0.52444 0 0 1 0.7261 0.13184 Z" stroke-linecap="round" />
</g>
		<g transform="matrix(1 0 0 1 -205.1 -162.91)"  >
<path style="stroke: none; stroke-width: 1; stroke-dasharray: none; stroke-linecap: butt; stroke-dashoffset: 0; stroke-linejoin: miter; stroke-miterlimit: 4; fill: rgb(230,230,230); fill-rule: nonzero; opacity: 1;"  transform=" translate(-394.9, -287.09)" d="M 458.76688 336.75688 H 331.0413 a 14.90431 14.90431 0 0 1 -14.88721 -14.88769 V 252.30374 A 14.90346 14.90346 0 0 1 331.0413 237.417 H 458.76688 a 14.90347 14.90347 0 0 1 14.88721 14.88672 v 69.56543 A 14.90431 14.90431 0 0 1 458.76688 336.75688 Z" stroke-linecap="round" />
</g>
		<g transform="matrix(1 0 0 1 -10.1 -162.91)"  >
<path style="stroke: none; stroke-width: 1; stroke-dasharray: none; stroke-linecap: butt; stroke-dashoffset: 0; stroke-linejoin: miter; stroke-miterlimit: 4; fill: rgb(63,81,181); fill-rule: nonzero; opacity: 1;"  transform=" translate(-589.9, -287.09)" d="M 653.76688 336.75688 H 526.0413 a 14.90431 14.90431 0 0 1 -14.88721 -14.88769 V 252.30374 A 14.90346 14.90346 0 0 1 526.0413 237.417 H 653.76688 a 14.90345 14.90345 0 0 1 14.88721 14.88672 v 69.56543 A 14.90433 14.90433 0 0 1 653.76688 336.75688 Z" stroke-linecap="round" />
</g>
		<g transform="matrix(1 0 0 1 184.9 -162.91)"  >
<path style="stroke: none; stroke-width: 1; stroke-dasharray: none; stroke-linecap: butt; stroke-dashoffset: 0; stroke-linejoin: miter; stroke-miterlimit: 4; fill: rgb(230,230,230); fill-rule: nonzero; opacity: 1;"  transform=" translate(-784.9, -287.09)" d="M 848.76688 336.75688 H 721.0413 a 14.90431 14.90431 0 0 1 -14.88721 -14.88769 V 252.30374 A 14.90346 14.90346 0 0 1 721.0413 237.417 H 848.76688 a 14.90345 14.90345 0 0 1 14.88721 14.88672 v 69.56543 A 14.90433 14.90433 0 0 1 848.76688 336.75688 Z" stroke-linecap="round" />
</g>
		<g transform="matrix(1 0 0 1 -205.1 -7.91)"  >
<path style="stroke: none; stroke-width: 1; stroke-dasharray: none; stroke-linecap: butt; stroke-dashoffset: 0; stroke-linejoin: miter; stroke-miterlimit: 4; fill: rgb(242,242,242); fill-rule: nonzero; opacity: 1;"  transform=" translate(-394.9, -442.09)" d="M 458.76688 491.75688 H 331.0413 a 14.90431 14.90431 0 0 1 -14.88721 -14.88769 V 407.30376 A 14.90349 14.90349 0 0 1 331.0413 392.417 H 458.76688 a 14.90348 14.90348 0 0 1 14.88721 14.88672 v 69.56543 A 14.90431 14.90431 0 0 1 458.76688 491.75688 Z" stroke-linecap="round" />
</g>
		<g transform="matrix(1 0 0 1 -10.1 -7.91)"  >
<path style="stroke: none; stroke-width: 1; stroke-dasharray: none; stroke-linecap: butt; stroke-dashoffset: 0; stroke-linejoin: miter; stroke-miterlimit: 4; fill: rgb(230,230,230); fill-rule: nonzero; opacity: 1;"  transform=" translate(-589.9, -442.09)" d="M 653.76688 491.75688 H 526.0413 a 14.90431 14.90431 0 0 1 -14.88721 -14.88769 V 407.30376 A 14.90349 14.90349 0 0 1 526.0413 392.417 H 653.76688 a 14.90346 14.90346 0 0 1 14.88721 14.88672 v 69.56543 A 14.90433 14.90433 0 0 1 653.76688 491.75688 Z" stroke-linecap="round" />
</g>
		<g transform="matrix(1 0 0 1 62.79 31.75)" id="fcc64bf3-a6e1-406f-af2a-c5c9529d985b"  >
<circle style="stroke: none; stroke-width: 1; stroke-dasharray: none; stroke-linecap: butt; stroke-dashoffset: 0; stroke-linejoin: miter; stroke-miterlimit: 4; fill: rgb(63,81,181); fill-rule: nonzero; opacity: 1;"  cx="0" cy="0" r="22.81223" />
</g>
		<g transform="matrix(1 0 0 1 62.68 31.65)" id="a515bf60-7ad9-4961-925b-281b4504c434-110"  >
<path style="stroke: none; stroke-width: 1; stroke-dasharray: none; stroke-linecap: butt; stroke-dashoffset: 0; stroke-linejoin: miter; stroke-miterlimit: 4; fill: rgb(255,255,255); fill-rule: nonzero; opacity: 1;"  transform=" translate(-662.68, -481.65)" d="M 672.25828 479.82985 h -7.75611 v -7.75613 a 1.82507 1.82507 0 0 0 -1.82507 -1.82511 h 0 a 1.82508 1.82508 0 0 0 -1.82507 1.82511 v 7.75613 h -7.75611 a 1.82507 1.82507 0 0 0 -1.82507 1.8251 h 0 a 1.82508 1.82508 0 0 0 1.82507 1.82511 h 7.75617 v 7.75613 a 1.82507 1.82507 0 0 0 1.82507 1.8251 h 0 a 1.82508 1.82508 0 0 0 1.82508 -1.82507 V 483.48 h 7.756 a 1.82508 1.82508 0 0 0 1.82507 -1.82511 h 0 a 1.82507 1.82507 0 0 0 -1.82507 -1.8251 h 0 Z" stroke-linecap="round" />
</g>
		<g transform="matrix(1 0 0 1 260.79 -119.25)" id="add300b1-303e-47da-8a54-54886e1d1e76"  >
<circle style="stroke: none; stroke-width: 1; stroke-dasharray: none; stroke-linecap: butt; stroke-dashoffset: 0; stroke-linejoin: miter; stroke-miterlimit: 4; fill: rgb(63,81,181); fill-rule: nonzero; opacity: 1;"  cx="0" cy="0" r="22.81224" />
</g>
		<g transform="matrix(1 0 0 1 260.68 -119.35)" id="ac71a829-1528-4702-ba68-9cb7b8b12af7-111"  >
<path style="stroke: none; stroke-width: 1; stroke-dasharray: none; stroke-linecap: butt; stroke-dashoffset: 0; stroke-linejoin: miter; stroke-miterlimit: 4; fill: rgb(255,255,255); fill-rule: nonzero; opacity: 1;"  transform=" translate(-860.68, -330.65)" d="M 870.25828 328.82985 h -7.75611 v -7.75613 a 1.82507 1.82507 0 0 0 -1.82507 -1.82511 h 0 a 1.82508 1.82508 0 0 0 -1.82507 1.82511 v 7.75613 h -7.75611 a 1.82507 1.82507 0 0 0 -1.82507 1.8251 h 0 a 1.82508 1.82508 0 0 0 1.82507 1.82511 h 7.75617 v 7.75613 a 1.82507 1.82507 0 0 0 1.82507 1.8251 h 0 a 1.82508 1.82508 0 0 0 1.82508 -1.82507 V 332.48 h 7.756 a 1.82508 1.82508 0 0 0 1.82507 -1.82511 h 0 a 1.82507 1.82507 0 0 0 -1.82507 -1.8251 h 0 Z" stroke-linecap="round" />
</g>
		<g transform="matrix(1 0 0 1 -132.21 -121.25)" id="ad2802dd-75a3-400f-a980-dd7e255328e3"  >
<circle style="stroke: none; stroke-width: 1; stroke-dasharray: none; stroke-linecap: butt; stroke-dashoffset: 0; stroke-linejoin: miter; stroke-miterlimit: 4; fill: rgb(63,81,181); fill-rule: nonzero; opacity: 1;"  cx="0" cy="0" r="22.81223" />
</g>
		<g transform="matrix(1 0 0 1 -132.32 -121.35)" id="a152d324-d2c4-475a-92fe-001d0469b5e0-112"  >
<path style="stroke: none; stroke-width: 1; stroke-dasharray: none; stroke-linecap: butt; stroke-dashoffset: 0; stroke-linejoin: miter; stroke-miterlimit: 4; fill: rgb(255,255,255); fill-rule: nonzero; opacity: 1;"  transform=" translate(-467.68, -328.65)" d="M 477.25828 326.82985 h -7.75614 v -7.75613 a 1.82509 1.82509 0 0 0 -1.82507 -1.82511 h 0 a 1.8251 1.8251 0 0 0 -1.8251 1.82511 h 0 v 7.75613 h -7.75614 a 1.8251 1.8251 0 0 0 -1.8251 1.8251 h 0 a 1.8251 1.8251 0 0 0 1.82507 1.82511 h 7.75614 v 7.75613 a 1.82509 1.82509 0 0 0 1.8251 1.8251 h 0 a 1.82508 1.82508 0 0 0 1.8251 -1.82507 V 330.48 h 7.75614 a 1.8251 1.8251 0 0 0 1.8251 -1.82511 h 0 a 1.8251 1.8251 0 0 0 -1.8251 -1.8251 h 0 Z" stroke-linecap="round" />
</g>
		<g transform="matrix(1 0 0 1 21.22 -114.01)"  >
<path style="stroke: none; stroke-width: 1; stroke-dasharray: none; stroke-linecap: butt; stroke-dashoffset: 0; stroke-linejoin: miter; stroke-miterlimit: 4; fill: rgb(158,97,106); fill-rule: nonzero; opacity: 1;"  transform=" translate(-621.22, -335.99)" d="M 638.57566 297.23225 a 9.06978 9.06978 0 0 1 -7.3208 11.82447 l -10.54828 72.00079 l -17.303 -8.451 l 17.40372 -71.8703 a 9.11882 9.11882 0 0 1 17.76831 -3.504 Z" stroke-linecap="round" />
</g>
		<g transform="matrix(1 0 0 1 -93.89 34.74)"  >
<path style="stroke: none; stroke-width: 1; stroke-dasharray: none; stroke-linecap: butt; stroke-dashoffset: 0; stroke-linejoin: miter; stroke-miterlimit: 4; fill: rgb(158,97,106); fill-rule: nonzero; opacity: 1;"  transform=" translate(-506.11, -484.74)" d="M 512.5893 527.83214 a 9.06961 9.06961 0 0 0 -3.492 -13.46173 l 7.11621 -76.58634 l -14.90473 7.63986 l -4.654 73.80091 a 9.11882 9.11882 0 0 0 15.93442 8.6073 Z" stroke-linecap="round" />
</g>
		<g transform="matrix(1 0 0 1 -46.48 4.66)"  >
<polygon style="stroke: none; stroke-width: 1; stroke-dasharray: none; stroke-linecap: butt; stroke-dashoffset: 0; stroke-linejoin: miter; stroke-miterlimit: 4; fill: rgb(158,97,106); fill-rule: nonzero; opacity: 1;"  points="-30.75,34.44 33.21,31.98 36.9,-34.44 -36.9,-34.44 -30.75,34.44 " />
</g>
		<g transform="matrix(1 0 0 1 -81.04 252.59)"  >
<polygon style="stroke: none; stroke-width: 1; stroke-dasharray: none; stroke-linecap: butt; stroke-dashoffset: 0; stroke-linejoin: miter; stroke-miterlimit: 4; fill: rgb(158,97,106); fill-rule: nonzero; opacity: 1;"  points="-8.06,21.08 2.87,21.08 8.07,-21.08 -8.07,-21.08 -8.06,21.08 " />
</g>
		<g transform="matrix(1 0 0 1 -75.05 280.83)"  >
<path style="stroke: none; stroke-width: 1; stroke-dasharray: none; stroke-linecap: butt; stroke-dashoffset: 0; stroke-linejoin: miter; stroke-miterlimit: 4; fill: rgb(47,46,65); fill-rule: nonzero; opacity: 1;"  transform=" translate(-524.95, -730.83)" d="M 508.18961 718.27562 l 17.27774 -1.03125 v 7.40253 l 16.42643 11.34466 a 4.6239 4.6239 0 0 1 -2.62748 8.429 H 518.69651 l -3.5455 -7.32221 l -1.38434 7.32221 h -7.75561 Z" stroke-linecap="round" />
</g>
		<g transform="matrix(1 0 0 1 -32.42 252.59)"  >
<polygon style="stroke: none; stroke-width: 1; stroke-dasharray: none; stroke-linecap: butt; stroke-dashoffset: 0; stroke-linejoin: miter; stroke-miterlimit: 4; fill: rgb(158,97,106); fill-rule: nonzero; opacity: 1;"  points="-8.06,21.08 2.87,21.08 8.07,-21.08 -8.07,-21.08 -8.06,21.08 " />
</g>
		<g transform="matrix(1 0 0 1 -44 137.43)"  >
<path style="stroke: none; stroke-width: 1; stroke-dasharray: none; stroke-linecap: butt; stroke-dashoffset: 0; stroke-linejoin: miter; stroke-miterlimit: 4; fill: rgb(47,46,65); fill-rule: nonzero; opacity: 1;"  transform=" translate(-556, -587.43)" d="M 521.88435 473.5041 s -19.13755 15.45038 -8.76307 70.62845 c -1.5798 0.1883 0.20908 3.30231 0.20908 3.30231 l 1.497 44.95953 l 1.15683 5.1529 l -3.84607 8.31463 l 1.58551 9.034 l -4.888 81.9917 l 18.05719 2.33508 L 544.173 614.07915 l 3.2909 -9.57257 l 3.3009 -8.39075 l -1.78055 -8.94769 l 1.46033 -13.88788 l 9.96188 -46.829 l 2.43869 81.21808 l -3.403 7.75378 l 1.89376 8.5116 l -4.219 4.51819 l -1.66748 75.98993 l 19.25439 0.90063 l 15.9311 -76.60315 l -1.23529 -9.77545 l 2.1195 -7.22791 V 594.85387 l 3.63025 -7.96808 l 7.914 -43.44751 s 2.38742 -33.95831 -15.03183 -73.91895 Z" stroke-linecap="round" />
</g>
		<g transform="matrix(1 0 0 1 -85.89 -32.7)"  >
<path style="stroke: none; stroke-width: 1; stroke-dasharray: none; stroke-linecap: butt; stroke-dashoffset: 0; stroke-linejoin: miter; stroke-miterlimit: 4; fill: rgb(63,61,86); fill-rule: nonzero; opacity: 1;"  transform=" translate(-514.11, -417.3)" d="M 529.68385 365.01326 s -24.17157 4.78046 -28.33655 25.39468 s -6.84455 67.26288 -6.84455 67.26288 l 0.91214 6.49622 l 23.38169 5.42178 l 14.92358 -65.36273 Z" stroke-linecap="round" />
</g>
		<g transform="matrix(1 0 0 1 7.16 -71.84)"  >
<path style="stroke: none; stroke-width: 1; stroke-dasharray: none; stroke-linecap: butt; stroke-dashoffset: 0; stroke-linejoin: miter; stroke-miterlimit: 4; fill: rgb(63,61,86); fill-rule: nonzero; opacity: 1;"  transform=" translate(-607.16, -378.16)" d="M 584.84711 371.97145 s 2.45014 -3.43347 16.17112 -3.963 c 0.56491 -0.02179 -0.13456 -1.14252 -0.13456 -1.14252 l 6.59879 -32.25272 l 21.9906 12.17527 l -3.7121 33.813 L 589.6254 421.70213 Z" stroke-linecap="round" />
</g>
		<g transform="matrix(1 0 0 1 -46.97 -39.16)"  >
<path style="stroke: none; stroke-width: 1; stroke-dasharray: none; stroke-linecap: butt; stroke-dashoffset: 0; stroke-linejoin: miter; stroke-miterlimit: 4; fill: rgb(63,61,86); fill-rule: nonzero; opacity: 1;"  transform=" translate(-553.03, -410.84)" d="M 571.13981 468.12233 c -10.3526 0.00079 -25.936 -1.14172 -49.39554 -4.62451 a 7.165 7.165 0 0 1 -6.01373 -5.99893 a 5.42418 5.42418 0 0 1 -0.91135 -6.16007 l 0.02179 -0.04278 l -0.53155 -0.6265 a 5.80077 5.80077 0 0 1 -0.38681 -7.01147 l -7.2652 -51.97477 a 21.89569 21.89569 0 0 1 15.22772 -24.02145 l 2.682 -0.83508 l 10.14248 -13.26648 l 0.2 0.00232 l 32.5607 0.4335 l 10.56662 13.41824 l 17.08081 4.02756 l 0.04438 0.26 l 3.96609 22.914 c 2.06241 11.91773 -2.66794 16.606 -8.70578 27.0863 l 1.77213 29.43436 l 0.804 1.46082 a 3.95918 3.95918 0 0 1 -0.94793 4.96774 a 7.71178 7.71178 0 0 1 0.10507 4.7724 l -0.41794 1.38065 c 0.00079 0.0397 -0.11054 0.60083 -1.01254 1.2857 C 589.09928 466.23891 584.4304 468.12233 571.13981 468.12233 Z" stroke-linecap="round" />
</g>
		<g transform="matrix(1 0 0 1 -26.43 280.83)"  >
<path style="stroke: none; stroke-width: 1; stroke-dasharray: none; stroke-linecap: butt; stroke-dashoffset: 0; stroke-linejoin: miter; stroke-miterlimit: 4; fill: rgb(47,46,65); fill-rule: nonzero; opacity: 1;"  transform=" translate(-573.57, -730.83)" d="M 556.80378 718.27562 l 17.27774 -1.03125 v 7.40253 l 16.42642 11.34466 a 4.6239 4.6239 0 0 1 -2.62747 8.429 H 567.31068 l -3.54551 -7.32221 l -1.38433 7.32221 h -7.75565 Z" stroke-linecap="round" />
</g>
		<g transform="matrix(0.16 -0.99 0.99 0.16 -50.25 -129.44)"  >
<circle style="stroke: none; stroke-width: 1; stroke-dasharray: none; stroke-linecap: butt; stroke-dashoffset: 0; stroke-linejoin: miter; stroke-miterlimit: 4; fill: rgb(158,97,106); fill-rule: nonzero; opacity: 1;"  cx="0" cy="0" r="25.52654" />
</g>
		<g transform="matrix(1 0 0 1 -75.24 -130.81)"  >
<path style="stroke: none; stroke-width: 1; stroke-dasharray: none; stroke-linecap: butt; stroke-dashoffset: 0; stroke-linejoin: miter; stroke-miterlimit: 4; fill: rgb(47,46,65); fill-rule: nonzero; opacity: 1;"  transform=" translate(-524.76, -319.19)" d="M 564.67988 295.61836 c -9.35593 -6.43451 -17.59488 -7.41464 -24.36267 -5.58966 a 8.89677 8.89677 0 0 0 -3.55887 -3.16012 c -5.27838 -13.30008 -21.34168 -21.28745 -35.127 -17.40467 c -13.87448 3.9079 -23.44757 19.27674 -20.83691 33.45273 c 1.61789 8.787 7.14792 16.39591 9.37222 25.04932 c 4.30573 16.75143 -6.19781 35.94018 -22.62927 41.34 c 15.55756 3.12384 32.68268 -6.37912 38.264 -21.23346 c 2.71084 -7.215 2.87433 -15.09237 3.219 -22.79211 a 75.56441 75.56441 0 0 1 1.9426 -15.783 a 33.72225 33.72225 0 0 1 2.51172 -6.72034 A 22.99686 22.99686 0 0 1 524.4806 292.0992 a 8.778 8.778 0 0 0 1.28183 7.90252 c -3.6485 4.57053 -5.63455 9.51328 -5.63455 12.47333 c -7.57935 13.8526 3.25924 25.75144 17.11218 33.3306 a 28.38088 28.38088 0 0 0 18.13275 3.16122 l 0.57956 -2.474 l 0.78522 2.22855 l 2.62121 7.47122 q 4.5358 2.19425 8.993 4.81055 c -1.12893 -5.30145 -2.04214 -10.59311 -2.67059 -15.767 c -0.87006 -7.04193 2.16293 -17.52557 4.3508 -23.90094 a 37.632 37.632 0 0 0 2.06033 -12.2128 v -0.18173 l 2.13034 6.8428 l 7.75577 -3.3085 C 580.53559 304.1989 581.97852 294.80348 564.67988 295.61836 Z" stroke-linecap="round" />
</g>
		<g transform="matrix(1 0 0 1 0 294.5)"  >
<path style="stroke: none; stroke-width: 1; stroke-dasharray: none; stroke-linecap: butt; stroke-dashoffset: 0; stroke-linejoin: miter; stroke-miterlimit: 4; fill: rgb(204,204,204); fill-rule: nonzero; opacity: 1;"  transform=" translate(-600, -744.5)" d="M 883.647 745.68755 H 316.353 a 1.19069 1.19069 0 0 1 0 -2.38135 H 883.647 a 1.19069 1.19069 0 0 1 0 2.38135 Z" stroke-linecap="round" />
</g>
		<g transform="matrix(1 0 0 1 -134.82 34.74)" id="aeef577c-289f-4c95-850d-f6939249b5af"  >
<circle style="stroke: none; stroke-width: 1; stroke-dasharray: none; stroke-linecap: butt; stroke-dashoffset: 0; stroke-linejoin: miter; stroke-miterlimit: 4; fill: rgb(230,230,230); fill-rule: nonzero; opacity: 1;"  cx="0" cy="0" r="22.81224" />
</g>
		<g transform="matrix(1 0 0 1 168.41 -9.48)"  >
<path style="stroke: none; stroke-width: 1; stroke-dasharray: none; stroke-linecap: butt; stroke-dashoffset: 0; stroke-linejoin: miter; stroke-miterlimit: 4; fill: rgb(242,242,242); fill-rule: nonzero; opacity: 1;"  transform=" translate(-768.41, -440.52)" d="M 808.41264 471.63265 H 728.39982 a 9.33671 9.33671 0 0 1 -9.326 -9.3263 V 418.72756 a 9.33618 9.33618 0 0 1 9.326 -9.3257 h 80.01282 a 9.33618 9.33618 0 0 1 9.326 9.32568 v 43.57879 A 9.33671 9.33671 0 0 1 808.41264 471.63265 Z" stroke-linecap="round" />
</g>
		<g transform="matrix(1 0 0 1 209.59 -8.18)" id="a24c8b8a-c30a-477e-8412-dbddb638fe0a"  >
<circle style="stroke: none; stroke-width: 1; stroke-dasharray: none; stroke-linecap: butt; stroke-dashoffset: 0; stroke-linejoin: miter; stroke-miterlimit: 4; fill: rgb(63,81,181); fill-rule: nonzero; opacity: 1;"  cx="0" cy="0" r="12.11453" />
</g>
		<g transform="matrix(1 0 0 1 209.53 -8.23)" id="ac585bde-7a48-4e1f-a3d4-d671a5b024fe-113"  >
<path style="stroke: none; stroke-width: 1; stroke-dasharray: none; stroke-linecap: butt; stroke-dashoffset: 0; stroke-linejoin: miter; stroke-miterlimit: 4; fill: rgb(255,255,255); fill-rule: nonzero; opacity: 1;"  transform=" translate(-809.53, -441.77)" d="M 814.62215 440.79921 h -4.119 v -4.11893 a 0.96921 0.96921 0 0 0 -0.96923 -0.96923 h 0 a 0.96924 0.96924 0 0 0 -0.96923 0.96921 v 4.119 H 804.4458 a 0.96923 0.96923 0 0 0 -0.96923 0.96921 v 0 h 0 a 0.96921 0.96921 0 0 0 0.96923 0.96923 h 4.11894 v 4.11892 a 0.96921 0.96921 0 0 0 0.96923 0.96923 h 0 a 0.96923 0.96923 0 0 0 0.96923 -0.96921 v -4.11894 h 4.119 a 0.96924 0.96924 0 0 0 0.96923 -0.96921 v 0 h 0 a 0.96921 0.96921 0 0 0 -0.96923 -0.96923 Z" stroke-linecap="round" />
</g>
		<g transform="matrix(1 0 0 1 207.63 -16.66)"  >
<path style="stroke: none; stroke-width: 1; stroke-dasharray: none; stroke-linecap: butt; stroke-dashoffset: 0; stroke-linejoin: miter; stroke-miterlimit: 4; fill: rgb(63,81,181); fill-rule: nonzero; opacity: 1;"  transform=" translate(-807.63, -433.34)" d="M 841.01058 459.26566 h -65.938 a 10.56776 10.56776 0 0 1 -10.556 -10.55565 V 409.35014 a 1.94477 1.94477 0 0 1 3.88953 0 v 10.54109 l 76.59074 6.96239 a 5.84107 5.84107 0 0 1 5.73742 5.83365 a 1.94624 1.94624 0 0 1 -0.03325 0.35831 l -3.85977 20.58457 A 5.84079 5.84079 0 0 1 841.01058 459.26566 Z m -72.60435 -35.46909 V 448.71 a 6.674 6.674 0 0 0 6.66643 6.66612 h 65.938 a 1.94687 1.94687 0 0 0 1.94477 -1.94476 a 1.94624 1.94624 0 0 1 0.03325 -0.35831 l 3.85058 -20.53587 a 1.9473 1.9473 0 0 0 -1.93907 -1.79472 c -0.05888 0 -0.11743 -0.00253 -0.176 -0.00824 Z" stroke-linecap="round" />
</g>
		<g transform="matrix(1 0 0 1 157.55 24.18)"  >
<circle style="stroke: none; stroke-width: 1; stroke-dasharray: none; stroke-linecap: butt; stroke-dashoffset: 0; stroke-linejoin: miter; stroke-miterlimit: 4; fill: rgb(63,81,181); fill-rule: nonzero; opacity: 1;"  cx="0" cy="0" r="3.24127" />
</g>
		<g transform="matrix(1 0 0 1 238.42 24.18)"  >
<circle style="stroke: none; stroke-width: 1; stroke-dasharray: none; stroke-linecap: butt; stroke-dashoffset: 0; stroke-linejoin: miter; stroke-miterlimit: 4; fill: rgb(63,81,181); fill-rule: nonzero; opacity: 1;"  cx="0" cy="0" r="3.24127" />
</g>
		<g transform="matrix(1 0 0 1 198.31 18.99)"  >
<path style="stroke: none; stroke-width: 1; stroke-dasharray: none; stroke-linecap: butt; stroke-dashoffset: 0; stroke-linejoin: miter; stroke-miterlimit: 4; fill: rgb(63,81,181); fill-rule: nonzero; opacity: 1;"  transform=" translate(-798.31, -468.99)" d="M 841.65884 470.93421 H 754.95832 a 1.94476 1.94476 0 0 1 0 -3.88952 h 86.70052 a 1.94476 1.94476 0 0 1 0 3.88952 Z" stroke-linecap="round" />
</g>
		<g transform="matrix(1 0 0 1 163.22 -41.3)"  >
<path style="stroke: none; stroke-width: 1; stroke-dasharray: none; stroke-linecap: butt; stroke-dashoffset: 0; stroke-linejoin: miter; stroke-miterlimit: 4; fill: rgb(63,81,181); fill-rule: nonzero; opacity: 1;"  transform=" translate(-763.22, -408.7)" d="M 771.6475 410.64665 H 754.79289 a 1.94477 1.94477 0 0 1 0 -3.88953 H 771.6475 a 1.94477 1.94477 0 0 1 0 3.88953 Z" stroke-linecap="round" />
</g>
		<g transform="matrix(1 0 0 1 178.78 12.51)"  >
<path style="stroke: none; stroke-width: 1; stroke-dasharray: none; stroke-linecap: butt; stroke-dashoffset: 0; stroke-linejoin: miter; stroke-miterlimit: 4; fill: rgb(63,81,181); fill-rule: nonzero; opacity: 1;"  transform=" translate(-778.78, -462.51)" d="M 785.16871 469.94411 a 1.93725 1.93725 0 0 1 -1.26643 -0.46972 l -12.78276 -10.98486 a 1.94474 1.94474 0 1 1 2.53475 -2.95009 L 786.437 466.52431 a 1.94476 1.94476 0 0 1 -1.26832 3.41978 Z" stroke-linecap="round" />
</g>
		<g transform="matrix(1 0 0 1 187.86 -9.48)"  >
<path style="stroke: none; stroke-width: 1; stroke-dasharray: none; stroke-linecap: butt; stroke-dashoffset: 0; stroke-linejoin: miter; stroke-miterlimit: 4; fill: rgb(63,81,181); fill-rule: nonzero; opacity: 1;"  transform=" translate(-787.86, -440.52)" d="M 787.86214 458.07106 a 1.94464 1.94464 0 0 1 -1.94476 -1.94453 V 424.9082 a 1.94476 1.94476 0 0 1 3.88952 0 v 31.2181 a 1.94463 1.94463 0 0 1 -1.94451 1.94476 Z" stroke-linecap="round" />
</g>
		<g transform="matrix(1 0 0 1 228.94 -8.18)"  >
<path style="stroke: none; stroke-width: 1; stroke-dasharray: none; stroke-linecap: butt; stroke-dashoffset: 0; stroke-linejoin: miter; stroke-miterlimit: 4; fill: rgb(63,81,181); fill-rule: nonzero; opacity: 1;"  transform=" translate(-828.94, -441.82)" d="M 828.94353 458.07106 a 1.94464 1.94464 0 0 1 -1.94477 -1.94455 V 427.50124 a 1.94477 1.94477 0 0 1 3.88953 0 v 28.62508 a 1.94464 1.94464 0 0 1 -1.94456 1.94474 Z" stroke-linecap="round" />
</g>
</g>
</g>
</svg>