<?xml version="1.0" encoding="UTF-8" standalone="no" ?>
<!DOCTYPE svg PUBLIC "-//W3C//DTD SVG 1.1//EN" "http://www.w3.org/Graphics/SVG/1.1/DTD/svg11.dtd">
<svg xmlns="http://www.w3.org/2000/svg" xmlns:xlink="http://www.w3.org/1999/xlink" version="1.1" width="640" height="480" viewBox="0 0 640 480" xml:space="preserve">
<desc>Created with Fabric.js 3.6.3</desc>
<defs>
</defs>
<g transform="matrix(0.71 0 0 0.71 318.55 242.82)"  >
<g style=""   >
		<g transform="matrix(1 0 0 1 185.92 257.15)"  >
<polygon style="stroke: none; stroke-width: 1; stroke-dasharray: none; stroke-linecap: butt; stroke-dashoffset: 0; stroke-linejoin: miter; stroke-miterlimit: 4; fill: rgb(158,97,106); fill-rule: nonzero; opacity: 1;"  points="12.67,33.1 -4.5,33.1 -12.67,-33.1 12.67,-33.1 12.67,33.1 " />
</g>
		<g transform="matrix(1 0 0 1 177.59 298.42)"  >
<path style="stroke: none; stroke-width: 1; stroke-dasharray: none; stroke-linecap: butt; stroke-dashoffset: 0; stroke-linejoin: miter; stroke-miterlimit: 4; fill: rgb(47,46,65); fill-rule: nonzero; opacity: 1;"  transform=" translate(-777.59, -748.42)" d="M 807.65107 769.99215 H 795.34112 l -2.19727 -11.62205 l -5.62754 11.62205 H 754.86738 A 7.33919 7.33919 0 0 1 750.697 756.6135 l 26.07247 -18.00658 v -11.7495 l 27.42368 1.63683 Z" stroke-linecap="round" />
</g>
		<g transform="matrix(1 0 0 1 270.65 247.14)"  >
<polygon style="stroke: none; stroke-width: 1; stroke-dasharray: none; stroke-linecap: butt; stroke-dashoffset: 0; stroke-linejoin: miter; stroke-miterlimit: 4; fill: rgb(158,97,106); fill-rule: nonzero; opacity: 1;"  points="29.92,21.44 16.14,31.69 -29.92,-16.57 -9.59,-31.69 29.92,21.44 " />
</g>
		<g transform="matrix(1 0 0 1 298.55 287.9)"  >
<path style="stroke: none; stroke-width: 1; stroke-dasharray: none; stroke-linecap: butt; stroke-dashoffset: 0; stroke-linejoin: miter; stroke-miterlimit: 4; fill: rgb(47,46,65); fill-rule: nonzero; opacity: 1;"  transform=" translate(-898.55, -737.9)" d="M 925.58816 737.04791 L 915.71 744.39344 l -8.69827 -8.015 l 2.41922 12.68419 l -26.19923 19.48211 a 7.33918 7.33918 0 0 1 -11.32976 -8.24721 l 10.17712 -30.00728 l -7.0111 -9.42842 l 22.98294 -15.05066 Z" stroke-linecap="round" />
</g>
		<g transform="matrix(1 0 0 1 211.13 103.35)"  >
<path style="stroke: none; stroke-width: 1; stroke-dasharray: none; stroke-linecap: butt; stroke-dashoffset: 0; stroke-linejoin: miter; stroke-miterlimit: 4; fill: rgb(47,46,65); fill-rule: nonzero; opacity: 1;"  transform=" translate(-811.13, -553.35)" d="M 818.57583 398.64705 s 32.56879 28.13791 17.542 108.35207 l -18.3454 78.59653 l 59.8294 99.2561 l -19.07664 23.20771 l -77.77961 -107.4334 l -28.18529 -66.11365 L 744.6516 416.843 Z" stroke-linecap="round" />
</g>
		<g transform="matrix(1 0 0 1 185.93 183.16)"  >
<polygon style="stroke: none; stroke-width: 1; stroke-dasharray: none; stroke-linecap: butt; stroke-dashoffset: 0; stroke-linejoin: miter; stroke-miterlimit: 4; fill: rgb(47,46,65); fill-rule: nonzero; opacity: 1;"  points="-17.84,-79.81 -19.8,-49.47 -13.8,79.81 14.41,74.9 19.8,-17.15 -17.84,-79.81 " />
</g>
		<g transform="matrix(1 0 0 1 -182.58 276.21)"  >
<polygon style="stroke: none; stroke-width: 1; stroke-dasharray: none; stroke-linecap: butt; stroke-dashoffset: 0; stroke-linejoin: miter; stroke-miterlimit: 4; fill: rgb(255,182,182); fill-rule: nonzero; opacity: 1;"  points="-11.33,29.61 4.03,29.6 11.33,-29.61 -11.33,-29.6 -11.33,29.61 " />
</g>
		<g transform="matrix(1 0 0 1 -173.07 307.32)"  >
<path style="stroke: none; stroke-width: 1; stroke-dasharray: none; stroke-linecap: butt; stroke-dashoffset: 0; stroke-linejoin: miter; stroke-miterlimit: 4; fill: rgb(47,46,65); fill-rule: nonzero; opacity: 1;"  transform=" translate(-426.93, -757.32)" d="M 402.178 750.80612 l 4.32074 -0.00018 l 16.86888 -6.86018 l 9.0412 6.85913 H 432.41 A 19.26648 19.26648 0 0 1 451.67546 770.07 v 0.62605 l -49.49658 0.00183 Z" stroke-linecap="round" />
</g>
		<g transform="matrix(1 0 0 1 -116.85 268.96)"  >
<polygon style="stroke: none; stroke-width: 1; stroke-dasharray: none; stroke-linecap: butt; stroke-dashoffset: 0; stroke-linejoin: miter; stroke-miterlimit: 4; fill: rgb(255,182,182); fill-rule: nonzero; opacity: 1;"  points="-17.57,27.19 -2.6,30.57 17.57,-25.58 -4.53,-30.57 -17.57,27.19 " />
</g>
		<g transform="matrix(1 0 0 1 -117.07 304.53)"  >
<path style="stroke: none; stroke-width: 1; stroke-dasharray: none; stroke-linecap: butt; stroke-dashoffset: 0; stroke-linejoin: miter; stroke-miterlimit: 4; fill: rgb(47,46,65); fill-rule: nonzero; opacity: 1;"  transform=" translate(-482.93, -754.53)" d="M 462.86463 740.39329 l 4.21465 0.9516 l 17.96568 -2.97583 l 7.3082 8.68223 l 0.0012 0.00027 a 19.26648 19.26648 0 0 1 14.54854 23.03569 l -0.1379 0.61067 L 458.48379 759.7967 Z" stroke-linecap="round" />
</g>
		<g transform="matrix(1 0 0 1 -137.04 113.66)"  >
<path style="stroke: none; stroke-width: 1; stroke-dasharray: none; stroke-linecap: butt; stroke-dashoffset: 0; stroke-linejoin: miter; stroke-miterlimit: 4; fill: rgb(47,46,65); fill-rule: nonzero; opacity: 1;"  transform=" translate(-462.96, -563.66)" d="M 386.6516 393.843 c -7.19708 21.70636 -6.43618 45.268 1.72992 70.55606 l 3.49087 142.37821 S 386.67128 700.146 403.4543 733.00177 h 24.34 l 12.05112 -134.75129 l 1.5133 -90.44591 l 52.18244 76.30583 L 460.30462 730.79868 l 29.9568 2.678 l 53.93408 -159.1909 L 477.6516 419.843 Z" stroke-linecap="round" />
</g>
		<g transform="matrix(1 0 0 1 83.71 -91.15)"  >
<path style="stroke: none; stroke-width: 1; stroke-dasharray: none; stroke-linecap: butt; stroke-dashoffset: 0; stroke-linejoin: miter; stroke-miterlimit: 4; fill: rgb(230,230,230); fill-rule: nonzero; opacity: 1;"  transform=" translate(-683.71, -358.85)" d="M 667.346 332.01487 c 18.61732 -16.77656 46.30893 -25.21208 69.53714 -15.805 a 115.466 115.466 0 0 0 -51.888 59.93484 c -3.6979 9.83846 -6.78644 21.16623 -15.88188 26.43349 c -5.65933 3.27753 -12.70027 3.4377 -19.04568 1.85557 c -6.34568 -1.58237 -12.16226 -4.75415 -17.89913 -7.89422 l -1.63218 -0.03691 C 637.86406 372.53682 648.72872 348.79142 667.346 332.01487 Z" stroke-linecap="round" />
</g>
		<g transform="matrix(1 0 0 1 84.04 -94.13)"  >
<path style="stroke: none; stroke-width: 1; stroke-dasharray: none; stroke-linecap: butt; stroke-dashoffset: 0; stroke-linejoin: miter; stroke-miterlimit: 4; fill: rgb(255,255,255); fill-rule: nonzero; opacity: 1;"  transform=" translate(-684.04, -355.87)" d="M 736.75328 316.71942 A 98.69239 98.69239 0 0 0 681.847 342.64994 a 42.50049 42.50049 0 0 0 -8.34534 10.37667 a 24.37584 24.37584 0 0 0 -2.81751 12.51568 c 0.10054 4.05833 0.67335 8.19792 -0.21438 12.21 a 14.92537 14.92537 0 0 1 -7.42454 9.68865 c -4.54586 2.613 -9.7595 3.43673 -14.886 4.0651 c -5.692 0.69769 -11.61526 1.33219 -16.54238 4.5248 c -0.597 0.38683 -1.16231 -0.56211 -0.56622 -0.94836 c 8.57235 -5.5546 19.41969 -3.5335 28.63724 -7.24065 c 4.30108 -1.72983 8.10691 -4.76631 9.454 -9.35719 c 1.17794 -4.01452 0.5909 -8.2838 0.45359 -12.39207 a 26.01068 26.01068 0 0 1 2.299 -12.34028 a 39.29038 39.29038 0 0 1 7.9156 -10.65924 a 95.74917 95.74917 0 0 1 24.3333 -17.41978 A 100.44256 100.44256 0 0 1 736.743 315.61475 c 0.70319 -0.09065 0.70886 1.01461 0.01026 1.10467 Z" stroke-linecap="round" />
</g>
		<g transform="matrix(1 0 0 1 86.37 -121.72)"  >
<path style="stroke: none; stroke-width: 1; stroke-dasharray: none; stroke-linecap: butt; stroke-dashoffset: 0; stroke-linejoin: miter; stroke-miterlimit: 4; fill: rgb(255,255,255); fill-rule: nonzero; opacity: 1;"  transform=" translate(-686.37, -328.28)" d="M 686.44718 337.79134 a 14.807 14.807 0 0 1 1.63241 -19.1039 c 0.50628 -0.49873 1.30506 0.26457 0.79811 0.764 a 13.71094 13.71094 0 0 0 -1.48216 17.77371 c 0.41512 0.5769 -0.53561 1.13983 -0.94836 0.56623 Z" stroke-linecap="round" />
</g>
		<g transform="matrix(1 0 0 1 80.63 -87.83)"  >
<path style="stroke: none; stroke-width: 1; stroke-dasharray: none; stroke-linecap: butt; stroke-dashoffset: 0; stroke-linejoin: miter; stroke-miterlimit: 4; fill: rgb(255,255,255); fill-rule: nonzero; opacity: 1;"  transform=" translate(-680.63, -362.17)" d="M 670.36216 363.49127 a 28.53932 28.53932 0 0 0 20.3938 -4.08346 c 0.59834 -0.38471 1.16384 0.56412 0.56622 0.94836 a 29.68517 29.68517 0 0 1 -21.23023 4.20607 c -0.70085 -0.12626 -0.42683 -1.19655 0.27021 -1.071 Z" stroke-linecap="round" />
</g>
		<g transform="matrix(1 0 0 1 117.28 -125.2)"  >
<path style="stroke: none; stroke-width: 1; stroke-dasharray: none; stroke-linecap: butt; stroke-dashoffset: 0; stroke-linejoin: miter; stroke-miterlimit: 4; fill: rgb(255,255,255); fill-rule: nonzero; opacity: 1;"  transform=" translate(-717.28, -324.8)" d="M 714.44656 321.9478 a 8.38148 8.38148 0 0 0 6.2686 4.89443 c 0.7021 0.11732 0.42732 1.18753 -0.27021 1.071 a 9.39213 9.39213 0 0 1 -6.94675 -5.39917 a 0.57084 0.57084 0 0 1 0.19107 -0.7573 a 0.55506 0.55506 0 0 1 0.75729 0.19107 Z" stroke-linecap="round" />
</g>
		<g transform="matrix(1 0 0 1 95.84 -53.59)"  >
<path style="stroke: none; stroke-width: 1; stroke-dasharray: none; stroke-linecap: butt; stroke-dashoffset: 0; stroke-linejoin: miter; stroke-miterlimit: 4; fill: rgb(230,230,230); fill-rule: nonzero; opacity: 1;"  transform=" translate(-695.84, -396.41)" d="M 762.46124 397.11454 c -0.44048 -0.06079 -0.881 -0.12157 -1.32791 -0.1756 a 110.37862 110.37862 0 0 0 -17.88208 -0.90839 c -0.46221 0.00673 -0.93053 0.02051 -1.39159 0.0405 a 116.3646 116.3646 0 0 0 -41.75015 9.61014 a 113.00482 113.00482 0 0 0 -15.16291 8.0555 c -6.68773 4.23438 -13.602 9.35764 -21.078 11.08459 a 19.38584 19.38584 0 0 1 -2.36217 0.42086 l -30.88864 -26.74546 c -0.03969 -0.096 -0.0858 -0.18531 -0.12584 -0.28162 l -1.28212 -1.01147 c 0.23872 -0.17556 0.49008 -0.35251 0.72879 -0.52808 c 0.138 -0.10241 0.283 -0.19887 0.421 -0.30128 c 0.09422 -0.06639 0.18881 -0.13253 0.27 -0.19782 c 0.03128 -0.02222 0.0629 -0.04413 0.08811 -0.05934 c 0.08122 -0.06529 0.1636 -0.11732 0.23871 -0.17556 q 2.10345 -1.4895 4.23516 -2.95463 c 0.00611 -0.007 0.00611 -0.007 0.0191 -0.00815 a 166.15689 166.15689 0 0 1 34.601 -18.59939 c 0.36686 -0.13859 0.73948 -0.28453 1.12045 -0.4109 a 107.831 107.831 0 0 1 16.93919 -4.76651 a 95.32878 95.32878 0 0 1 9.5528 -1.33433 a 79.272 79.272 0 0 1 24.72335 1.7516 c 16.14332 3.7433 30.90977 12.60785 39.65578 26.43254 C 762.02688 396.40555 762.24387 396.75367 762.46124 397.11454 Z" stroke-linecap="round" />
</g>
		<g transform="matrix(1 0 0 1 96.42 -53.45)"  >
<path style="stroke: none; stroke-width: 1; stroke-dasharray: none; stroke-linecap: butt; stroke-dashoffset: 0; stroke-linejoin: miter; stroke-miterlimit: 4; fill: rgb(255,255,255); fill-rule: nonzero; opacity: 1;"  transform=" translate(-696.42, -396.55)" d="M 762.05235 397.44645 a 98.69236 98.69236 0 0 0 -59.45156 -12.3533 A 42.50006 42.50006 0 0 0 689.69 388.35387 a 24.3758 24.3758 0 0 0 -9.78493 8.29673 c -2.36313 3.30088 -4.39808 6.951 -7.52245 9.62 a 14.92533 14.92533 0 0 1 -11.76132 3.26575 c -5.2028 -0.6506 -9.86156 -3.13185 -14.3331 -5.71664 c -4.9648 -2.86991 -10.0762 -5.92951 -15.93241 -6.34685 c -0.70956 -0.05056 -0.5896 -1.14861 0.11888 -1.09812 c 10.1888 0.72611 17.633 8.8707 27.22462 11.46035 c 4.47564 1.20837 9.34256 1.07528 13.18213 -1.77925 c 3.35754 -2.49617 5.45923 -6.25839 7.82305 -9.62129 a 26.01082 26.01082 0 0 1 9.26529 -8.46889 a 39.29037 39.29037 0 0 1 12.73777 -3.74506 a 95.74907 95.74907 0 0 1 29.91669 0.7416 a 100.44263 100.44263 0 0 1 32.085 11.59611 c 0.616 0.351 -0.04488 1.23688 -0.65689 0.88819 Z" stroke-linecap="round" />
</g>
		<g transform="matrix(1 0 0 1 115.91 -72.86)"  >
<path style="stroke: none; stroke-width: 1; stroke-dasharray: none; stroke-linecap: butt; stroke-dashoffset: 0; stroke-linejoin: miter; stroke-miterlimit: 4; fill: rgb(255,255,255); fill-rule: nonzero; opacity: 1;"  transform=" translate(-715.91, -377.14)" d="M 709.199 383.98345 a 14.807 14.807 0 0 1 12.80526 -14.27057 c 0.7045 -0.09339 0.88272 0.997 0.17729 1.0905 a 13.711 13.711 0 0 0 -11.88443 13.29895 c -0.01588 0.71056 -1.11391 0.58761 -1.09812 -0.11888 Z" stroke-linecap="round" />
</g>
		<g transform="matrix(1 0 0 1 89.99 -50.21)"  >
<path style="stroke: none; stroke-width: 1; stroke-dasharray: none; stroke-linecap: butt; stroke-dashoffset: 0; stroke-linejoin: miter; stroke-miterlimit: 4; fill: rgb(255,255,255); fill-rule: nonzero; opacity: 1;"  transform=" translate(-689.99, -399.79)" d="M 680.88287 394.81911 a 28.53928 28.53928 0 0 0 18.74183 9.01806 c 0.70936 0.05308 0.58963 1.15113 -0.11888 1.09812 a 29.68518 29.68518 0 0 1 -19.4835 -9.42375 c -0.48357 -0.52277 0.37961 -1.21236 0.86055 -0.69243 Z" stroke-linecap="round" />
</g>
		<g transform="matrix(1 0 0 1 141.53 -57.84)"  >
<path style="stroke: none; stroke-width: 1; stroke-dasharray: none; stroke-linecap: butt; stroke-dashoffset: 0; stroke-linejoin: miter; stroke-miterlimit: 4; fill: rgb(255,255,255); fill-rule: nonzero; opacity: 1;"  transform=" translate(-741.53, -392.16)" d="M 741.09383 388.19084 a 8.38147 8.38147 0 0 0 2.05834 7.68205 c 0.49 0.51638 -0.37378 1.20545 -0.86055 0.69243 a 9.39216 9.39216 0 0 1 -2.29591 -8.49336 a 0.57082 0.57082 0 0 1 0.6085 -0.48962 a 0.55506 0.55506 0 0 1 0.48962 0.6085 Z" stroke-linecap="round" />
</g>
		<g transform="matrix(1 0 0 1 -405.37 258.07)"  >
<path style="stroke: none; stroke-width: 1; stroke-dasharray: none; stroke-linecap: butt; stroke-dashoffset: 0; stroke-linejoin: miter; stroke-miterlimit: 4; fill: rgb(230,230,230); fill-rule: nonzero; opacity: 1;"  transform=" translate(-194.63, -708.07)" d="M 219.92162 754.74293 c -1.45 5.44 -5.26 9.97 -9.86 13.27 c -0.75 0.54 -1.52 1.04 -2.3 1.51 c -0.24 0.14 -0.48 0.29 -0.73 0.42 q -0.405 0.24 -0.81 0.45 h -21.63 c -0.39 -0.79 -0.77 -1.59 -1.15 -2.38 c -9.27 -19.48 -15.78 -40.5 -14.67 -61.91 a 79.25417 79.25417 0 0 1 5.17 -24.25 c 5.94 -15.47 16.78 -28.86 31.69 -35.6 c 0.37 -0.17 0.76 -0.34 1.14 -0.5 c -0.12 0.43 -0.24 0.85 -0.36 1.28 a 110.78533 110.78533 0 0 0 -3.38 17.59 c -0.06 0.46 -0.11 0.92 -0.15 1.39 a 116.05427 116.05427 0 0 0 3.72 42.69 c 0.01 0.03 0.01995 0.07 0.03 0.1 q 1.27506 4.605 2.96 9.07 c 0.88 2.35 1.83 4.67 2.87 6.95 C 216.80163 734.393 222.62157 744.593 219.92162 754.74293 Z" stroke-linecap="round" />
</g>
		<g transform="matrix(1 0 0 1 -403.71 257.82)"  >
<path style="stroke: none; stroke-width: 1; stroke-dasharray: none; stroke-linecap: butt; stroke-dashoffset: 0; stroke-linejoin: miter; stroke-miterlimit: 4; fill: rgb(255,255,255); fill-rule: nonzero; opacity: 1;"  transform=" translate(-196.29, -707.82)" d="M 207.04162 646.203 c -0.21 0.28 -0.42005 0.55 -0.63 0.83 a 98.12885 98.12885 0 0 0 -11.12 18.76 c -0.16 0.33 -0.31 0.66 -0.44 1 a 97.8135 97.8135 0 0 0 -7.82 29.24 a 1.49 1.49 0 0 0 -0.02 0.21 c -0.25 2.36005 -0.4 4.74 -0.46 7.12 a 42.48011 42.48011 0 0 0 1.43 13.24 a 23.7688 23.7688 0 0 0 5.46 9.42 c 0.25 0.27 0.5 0.54 0.77 0.8 c 0.2 0.21 0.42 0.42 0.63 0.62 c 2.02 1.93 4.23 3.72 6.13 5.79 a 21.43163 21.43163 0 0 1 2.35 3 a 14.90407 14.90407 0 0 1 1.6 12.1 c -1.36 5.06 -4.47 9.33 -7.65 13.4 c -1.59 2.04 -3.23 4.1 -4.65 6.28 c -0.51995 0.78 -1 1.57 -1.43994 2.38 h -1.26 c 0.42 -0.81 0.88 -1.6 1.38 -2.38 c 3.65 -5.75 8.84 -10.69 11.53 -17.02 c 1.82 -4.26995 2.37 -9.11 0.07 -13.3 a 17.68156 17.68156 0 0 0 -2.43 -3.38 c -1.83 -2.07 -4.02 -3.84 -6.01 -5.71 c -0.5 -0.47 -0.99 -0.95 -1.46 -1.45 a 24.96377 24.96377 0 0 1 -5.64 -8.9 a 39.23028 39.23028 0 0 1 -1.94 -13.13 c 0 -2.84 0.15 -5.7 0.43 -8.54 c 0.03 -0.36 0.07 -0.73 0.11 -1.1 a 100.76663 100.76663 0 0 1 19.67 -49.23 c 0.2 -0.28 0.41 -0.55 0.62 -0.82 C 206.68163 644.87294 207.47161 645.653 207.04162 646.203 Z" stroke-linecap="round" />
</g>
		<g transform="matrix(1 0 0 1 -419.47 239.08)"  >
<path style="stroke: none; stroke-width: 1; stroke-dasharray: none; stroke-linecap: butt; stroke-dashoffset: 0; stroke-linejoin: miter; stroke-miterlimit: 4; fill: rgb(255,255,255); fill-rule: nonzero; opacity: 1;"  transform=" translate(-180.53, -689.08)" d="M 186.36526 696.67763 a 14.807 14.807 0 0 1 -12.3542 -14.66278 a 0.55275 0.55275 0 0 1 1.10455 -0.02415 a 13.711 13.711 0 0 0 11.51986 13.616 c 0.70147 0.11439 0.42725 1.18471 -0.27021 1.071 Z" stroke-linecap="round" />
</g>
		<g transform="matrix(1 0 0 1 -400.65 267.89)"  >
<path style="stroke: none; stroke-width: 1; stroke-dasharray: none; stroke-linecap: butt; stroke-dashoffset: 0; stroke-linejoin: miter; stroke-miterlimit: 4; fill: rgb(255,255,255); fill-rule: nonzero; opacity: 1;"  transform=" translate(-199.35, -717.89)" d="M 193.164 726.22406 a 28.5393 28.5393 0 0 0 11.53315 -17.308 c 0.15106 -0.69512 1.22186 -0.42407 1.071 0.27021 a 29.68514 29.68514 0 0 1 -12.0379 17.98619 c -0.58485 0.40629 -1.1479 -0.54428 -0.56622 -0.94836 Z" stroke-linecap="round" />
</g>
		<g transform="matrix(1 0 0 1 -401.03 215.98)"  >
<path style="stroke: none; stroke-width: 1; stroke-dasharray: none; stroke-linecap: butt; stroke-dashoffset: 0; stroke-linejoin: miter; stroke-miterlimit: 4; fill: rgb(255,255,255); fill-rule: nonzero; opacity: 1;"  transform=" translate(-198.97, -665.98)" d="M 194.96075 665.676 a 8.38149 8.38149 0 0 0 7.89345 -0.97168 c 0.57941 -0.41351 1.14186 0.53754 0.56622 0.94836 a 9.39215 9.39215 0 0 1 -8.72989 1.09429 a 0.57082 0.57082 0 0 1 -0.40038 -0.67059 a 0.55507 0.55507 0 0 1 0.6706 -0.40038 Z" stroke-linecap="round" />
</g>
		<g transform="matrix(1 0 0 1 -364.24 276.85)"  >
<path style="stroke: none; stroke-width: 1; stroke-dasharray: none; stroke-linecap: butt; stroke-dashoffset: 0; stroke-linejoin: miter; stroke-miterlimit: 4; fill: rgb(230,230,230); fill-rule: nonzero; opacity: 1;"  transform=" translate(-235.76, -726.85)" d="M 282.06158 684.87294 c -0.35 0.27 -0.71 0.54 -1.06 0.82 a 110.362 110.362 0 0 0 -13.29 12 c -0.32 0.33 -0.64 0.67 -0.95 1.01 l -0.01 0.01 a 116.347 116.347 0 0 0 -22.66 36.14 l -0.03 0.09 c -0.01 0.03 -0.02 0.05 -0.03 0.08 a 114.44321 114.44321 0 0 0 -5.03 16.42 c -1.22 5.46 -2.22 11.31 -4.13 16.57 c -0.29 0.81 -0.61 1.61 -0.95 2.38 h -44.46 c 0.15 -0.79 0.31 -1.59 0.47 -2.38 a 160.30168 160.30168 0 0 1 10.54 -33.7 c 0.16 -0.36 0.32 -0.72 0.5 -1.08 a 108.30478 108.30478 0 0 1 8.61 -15.35 a 0.0098 0.0098 0 0 1 0.01 -0.01 a 94.95585 94.95585 0 0 1 5.8 -7.69 a 79.11871 79.11871 0 0 1 18.72 -16.24 c 0.04 -0.03 0.09 -0.05 0.13 -0.08 c 14.04 -8.71 30.68 -12.86 46.59 -9.27 h 0.01 C 281.25158 684.68294 281.6516 684.773 282.06158 684.87294 Z" stroke-linecap="round" />
</g>
		<g transform="matrix(1 0 0 1 -356.05 277.34)"  >
<path style="stroke: none; stroke-width: 1; stroke-dasharray: none; stroke-linecap: butt; stroke-dashoffset: 0; stroke-linejoin: miter; stroke-miterlimit: 4; fill: rgb(255,255,255); fill-rule: nonzero; opacity: 1;"  transform=" translate(-243.95, -727.34)" d="M 282.01159 685.403 c -0.34 0.09 -0.68 0.19 -1.01 0.29 a 98.5888 98.5888 0 0 0 -20.17 8.27 c -0.32 0.17 -0.64 0.35 -0.96 0.53 a 98.25544 98.25544 0 0 0 -23.79 18.59 a 0.035 0.035 0 0 0 -0.01 0.02 c -0.08 0.08 -0.17 0.17 -0.24 0.25 c -1.6 1.72 -3.14 3.51 -4.6 5.35 a 42.769 42.769 0 0 0 -6.82 11.43 a 23.67365 23.67365 0 0 0 -1.31 10.81 c 0.03 0.37 0.08 0.73 0.13 1.1 c 0.04 0.29 0.08 0.58 0.13 0.88 c 0.66 4.01 1.8 8.03 1.48 12.12 a 14.90913 14.90913 0 0 1 -6.01 10.63 a 23.794 23.794 0 0 1 -3.68 2.34 a 36.85232 36.85232 0 0 1 -5.77 2.38 h -3.93 c 0.53 -0.15 1.05 -0.3 1.58 -0.45 a 48.21182 48.21182 0 0 0 5.53 -1.93 a 26.912 26.912 0 0 0 3 -1.48 c 4.02 -2.31 7.37005 -5.85 8.07 -10.58 c 0.61 -4.14 -0.57 -8.28 -1.27 -12.33 c -0.12 -0.7 -0.23 -1.39 -0.29 -2.08 a 24.43856 24.43856 0 0 1 0.85 -10.46 a 39.0623 39.0623 0 0 1 6.36 -11.66 a 83.355 83.355 0 0 1 5.48 -6.55 q 0.36 -0.40494 0.75 -0.81 a 100.901 100.901 0 0 1 24.21 -18.73 h 0.01 a 99.28782 99.28782 0 0 1 21.1 -8.74 h 0.01 c 0.33 -0.1 0.67 -0.2 1 -0.29 C 282.53161 684.12294 282.69158 685.213 282.01159 685.403 Z" stroke-linecap="round" />
</g>
		<g transform="matrix(1 0 0 1 -366.41 253.66)"  >
<path style="stroke: none; stroke-width: 1; stroke-dasharray: none; stroke-linecap: butt; stroke-dashoffset: 0; stroke-linejoin: miter; stroke-miterlimit: 4; fill: rgb(255,255,255); fill-rule: nonzero; opacity: 1;"  transform=" translate(-233.59, -703.66)" d="M 235.116 713.25243 a 14.807 14.807 0 0 1 -1.03613 -19.1455 c 0.43212 -0.5642 1.32915 0.08079 0.89646 0.64574 A 13.711 13.711 0 0 0 235.97653 712.56 c 0.49121 0.51367 -0.37215 1.20316 -0.86055 0.69243 Z" stroke-linecap="round" />
</g>
		<g transform="matrix(1 0 0 1 -367.28 287.99)"  >
<path style="stroke: none; stroke-width: 1; stroke-dasharray: none; stroke-linecap: butt; stroke-dashoffset: 0; stroke-linejoin: miter; stroke-miterlimit: 4; fill: rgb(255,255,255); fill-rule: nonzero; opacity: 1;"  transform=" translate(-232.72, -737.99)" d="M 222.75543 740.93692 a 28.53931 28.53931 0 0 0 19.62921 -6.87574 c 0.53912 -0.46406 1.2309 0.397 0.69242 0.86054 a 29.68514 29.68514 0 0 1 -20.44051 7.11332 c -0.71159 -0.02772 -0.58885 -1.12569 0.11888 -1.09812 Z" stroke-linecap="round" />
</g>
		<g transform="matrix(1 0 0 1 -336.16 246.11)"  >
<path style="stroke: none; stroke-width: 1; stroke-dasharray: none; stroke-linecap: butt; stroke-dashoffset: 0; stroke-linejoin: miter; stroke-miterlimit: 4; fill: rgb(255,255,255); fill-rule: nonzero; opacity: 1;"  transform=" translate(-263.84, -696.11)" d="M 260.64411 693.67444 a 8.38149 8.38149 0 0 0 6.8875 3.97657 c 0.71159 0.01869 0.58807 1.11668 -0.11888 1.09812 a 9.39215 9.39215 0 0 1 -7.62917 -4.38226 a 0.57083 0.57083 0 0 1 0.08406 -0.77649 a 0.55507 0.55507 0 0 1 0.77649 0.08406 Z" stroke-linecap="round" />
</g>
		<g transform="matrix(1 0 0 1 -1.54 -150.01)"  >
<path style="stroke: none; stroke-width: 1; stroke-dasharray: none; stroke-linecap: butt; stroke-dashoffset: 0; stroke-linejoin: miter; stroke-miterlimit: 4; fill: rgb(255,184,184); fill-rule: nonzero; opacity: 1;"  transform=" translate(-598.46, -299.99)" d="M 625.03076 300.73673 a 11.59945 11.59945 0 0 1 -17.7667 0.83759 l -37.80039 16.44009 l 3.682 -21.10161 l 35.3314 -12.37668 a 11.66235 11.66235 0 0 1 16.55372 16.20061 Z" stroke-linecap="round" />
</g>
		<g transform="matrix(1 0 0 1 -103.07 -152.49)"  >
<path style="stroke: none; stroke-width: 1; stroke-dasharray: none; stroke-linecap: butt; stroke-dashoffset: 0; stroke-linejoin: miter; stroke-miterlimit: 4; fill: rgb(230,230,230); fill-rule: nonzero; opacity: 1;"  transform=" translate(-496.93, -297.51)" d="M 599.80571 307.32525 l -87.7976 39.10831 l -0.18835 -0.06738 l -100.067 -35.65889 a 32.95966 32.95966 0 0 1 -14.78168 -42.75569 h 0 a 32.92423 32.92423 0 0 1 46.9872 -14.63652 l 74.4685 44.85908 l 72.21121 -9.35878 Z" stroke-linecap="round" />
</g>
		<g transform="matrix(1 0 0 1 0.02 321.2)"  >
<path style="stroke: none; stroke-width: 1; stroke-dasharray: none; stroke-linecap: butt; stroke-dashoffset: 0; stroke-linejoin: miter; stroke-miterlimit: 4; fill: rgb(204,204,204); fill-rule: nonzero; opacity: 1;"  transform=" translate(-600.02, -771.2)" d="M 1031.35162 771.203 a 1.1865 1.1865 0 0 1 -1.19 1.19 h -860.29 a 1.19 1.19 0 0 1 0 -2.38 h 860.29 A 1.1865 1.1865 0 0 1 1031.35162 771.203 Z" stroke-linecap="round" />
</g>
		<g transform="matrix(1 0 0 1 -166.54 -126.13)"  >
<path style="stroke: none; stroke-width: 1; stroke-dasharray: none; stroke-linecap: butt; stroke-dashoffset: 0; stroke-linejoin: miter; stroke-miterlimit: 4; fill: rgb(230,230,230); fill-rule: nonzero; opacity: 1;"  transform=" translate(-433.46, -323.87)" d="M 481.99193 424.40352 l -88.50585 -14.15674 a 16.89334 16.89334 0 0 1 -9.95557 -23.646 l 4.01367 -8.02832 l -1.55908 -84.34668 A 62.48156 62.48156 0 0 1 416.32152 239.572 l 8.63086 -5.16064 l 4.36182 -11.07666 l 40.22022 0.981 l 0.11718 14.52734 l 14.40381 22.96826 l -0.00049 0.09522 l -0.90381 125.01367 l -3.96972 12.90137 l 6.00244 15.00586 Z" stroke-linecap="round" />
</g>
		<g transform="matrix(1 0 0 1 -146.89 -276.98)"  >
<circle style="stroke: none; stroke-width: 1; stroke-dasharray: none; stroke-linecap: butt; stroke-dashoffset: 0; stroke-linejoin: miter; stroke-miterlimit: 4; fill: rgb(255,184,184); fill-rule: nonzero; opacity: 1;"  cx="0" cy="0" r="36.54413" />
</g>
		<g transform="matrix(1 0 0 1 -139 -285.26)"  >
<path style="stroke: none; stroke-width: 1; stroke-dasharray: none; stroke-linecap: butt; stroke-dashoffset: 0; stroke-linejoin: miter; stroke-miterlimit: 4; fill: rgb(47,46,65); fill-rule: nonzero; opacity: 1;"  transform=" translate(-461, -164.74)" d="M 415.05385 180.98352 c -1.09 -4.59187 -0.58956 -11.05349 0.02641 -15.677 c 1.61485 -12.12129 8.3464 -23.64474 18.57336 -30.47048 a 13.37957 13.37957 0 0 1 6.66453 -2.64845 c 2.41939 -0.101 5.04189 1.19418 5.78465 3.499 a 11.99254 11.99254 0 0 1 6.76552 -6.709 a 21.1355 21.1355 0 0 1 9.63075 -1.29746 a 35.19728 35.19728 0 0 1 29.36306 20.98947 c 0.97609 2.3188 3.70246 -6.24621 4.93916 -4.05528 a 9.7407 9.7407 0 0 0 5.52388 4.85342 c 2.4233 0.67619 3.40756 10.66034 4.3612 8.33222 a 11.0984 11.0984 0 0 1 -10.61055 15.47525 c -2.46642 -0.09228 -4.82489 -0.99947 -7.262 -1.39 c -8.71512 -1.39642 -17.96 4.92316 -19.82312 13.55058 a 23.98689 23.98689 0 0 0 -3.15565 -7.021 a 8.1187 8.1187 0 0 0 -6.51321 -3.57866 c -2.47957 0.09278 -4.6591 1.7139 -6.26793 3.60295 s -2.81713 4.093 -4.43782 5.97186 c -4.7555 5.513 -11.18745 18.3697 -17.96453 17.432 C 425.30335 201.103 416.54206 187.25309 415.05385 180.98352 Z" stroke-linecap="round" />
</g>
		<g transform="matrix(1 0 0 1 -21.36 -78.02)"  >
<path style="stroke: none; stroke-width: 1; stroke-dasharray: none; stroke-linecap: butt; stroke-dashoffset: 0; stroke-linejoin: miter; stroke-miterlimit: 4; fill: rgb(255,255,255); fill-rule: nonzero; opacity: 1;"  transform=" translate(-578.64, -371.98)" d="M 674.01238 342.14754 a 7.1328 7.1328 0 0 0 -4.80706 -7.85363 l -98.41317 -32.77709 a 7.13219 7.13219 0 0 0 -2.933 -0.3368 l -24.66687 2.33267 l -14.15377 1.34255 l -26.11867 2.46833 a 7.15519 7.15519 0 0 0 -6.38357 5.98973 l -13.26135 82.8376 a 7.18646 7.18646 0 0 0 4.48439 7.79592 l 99.4404 38.38442 a 6.94669 6.94669 0 0 0 1.44636 0.38836 a 7.13621 7.13621 0 0 0 2.17571 0.01648 l 64.25546 -9.52349 a 7.12057 7.12057 0 0 0 6.023 -5.99919 Z" stroke-linecap="round" />
</g>
		<g transform="matrix(1 0 0 1 -21.36 -78.02)"  >
<path style="stroke: none; stroke-width: 1; stroke-dasharray: none; stroke-linecap: butt; stroke-dashoffset: 0; stroke-linejoin: miter; stroke-miterlimit: 4; fill: rgb(63,81,181); fill-rule: nonzero; opacity: 1;"  transform=" translate(-578.64, -371.98)" d="M 490.01349 398.1102 l 99.44009 38.38234 a 0.89711 0.89711 0 0 0 0.457 0.05366 l 64.247 -9.52224 a 0.88347 0.88347 0 0 0 0.7549 -0.75161 l 12.91979 -85.06677 a 0.90469 0.90469 0 0 0 -0.59937 -0.98151 l -0.66169 -0.22392 l -97.75762 -32.54588 a 0.67787 0.67787 0 0 0 -0.13742 -0.03318 a 0.88732 0.88732 0 0 0 -0.23 -0.01192 l -60.16426 5.6932 l -4.77428 0.44794 a 0.90314 0.90314 0 0 0 -0.7947 0.74781 l -13.259 82.83439 A 0.89735 0.89735 0 0 0 490.01349 398.1102 Z" stroke-linecap="round" />
</g>
		<g transform="matrix(1 0 0 1 -12.57 -122.97)"  >
<path style="stroke: none; stroke-width: 1; stroke-dasharray: none; stroke-linecap: butt; stroke-dashoffset: 0; stroke-linejoin: miter; stroke-miterlimit: 4; fill: rgb(47,46,65); fill-rule: nonzero; opacity: 1;"  transform=" translate(-587.43, -327.03)" d="M 508.28194 313.10237 l 60.16426 -5.6932 a 0.88732 0.88732 0 0 1 0.23 0.01192 a 0.67787 0.67787 0 0 1 0.13742 0.03318 l 97.75762 32.54588 l -25.78658 2.72965 l -9.65046 1.01669 l -27.46045 2.90123 a 1.939 1.939 0 0 1 -0.24081 -0.0029 c -0.04881 -0.01472 -0.09762 -0.02944 -0.15639 -0.04511 Z" stroke-linecap="round" />
</g>
		<g transform="matrix(1 0 0 1 -21.36 -78.02)"  >
<path style="stroke: none; stroke-width: 1; stroke-dasharray: none; stroke-linecap: butt; stroke-dashoffset: 0; stroke-linejoin: miter; stroke-miterlimit: 4; fill: rgb(63,61,86); fill-rule: nonzero; opacity: 1;"  transform=" translate(-578.64, -371.98)" d="M 487.75761 403.95209 l 99.44009 38.38233 a 6.72242 6.72242 0 0 0 1.4505 0.37968 a 7.22358 7.22358 0 0 0 2.17727 0.02722 l 64.247 -9.52224 a 7.13521 7.13521 0 0 0 6.02839 -6.00387 l 12.90982 -85.06772 a 7.19014 7.19014 0 0 0 -0.4184 -3.71669 c -0.06533 -0.15688 -0.13072 -0.31384 -0.207 -0.46172 a 6.99031 6.99031 0 0 0 -2.26369 -2.69758 a 7.13789 7.13789 0 0 0 -1.91579 -0.97662 l -0.11659 -0.04131 l -98.29175 -32.73751 a 8.95539 8.95539 0 0 0 -1.22721 -0.29807 a 7.08573 7.08573 0 0 0 -1.71463 -0.03323 l -24.66295 2.32468 l -14.15253 1.35 L 502.917 307.3259 a 7.09173 7.09173 0 0 0 -3.01853 0.99744 a 1.32948 1.32948 0 0 0 -0.20245 0.12125 a 1.1922 1.1922 0 0 0 -0.12992 0.09813 a 7.14818 7.14818 0 0 0 -3.02682 4.76367 l -13.2699 82.84346 A 7.19418 7.19418 0 0 0 487.75761 403.95209 Z m 10.54219 -90.35694 a 5.29965 5.29965 0 0 1 1.26984 -2.6713 a 4.65147 4.65147 0 0 1 0.67571 -0.65875 a 5.31719 5.31719 0 0 1 2.32365 -1.08389 a 4.059 4.059 0 0 1 0.50915 -0.07189 l 43.98466 -4.15521 l 20.96479 -1.995 c 0.14217 -0.01658 0.27254 -0.01418 0.40386 -0.02168 a 5.00673 5.00673 0 0 1 0.94761 0.07043 a 4.14489 4.14489 0 0 1 0.84467 0.20125 l 98.4084 32.77882 c 0.07775 0.02754 0.14554 0.05407 0.22323 0.0816 a 5.218 5.218 0 0 1 2.27305 1.6537 a 5.25912 5.25912 0 0 1 1.12074 4.14541 l -12.92068 85.07674 a 5.34916 5.34916 0 0 1 -4.5086 4.50155 l -64.257 9.52134 a 5.41346 5.41346 0 0 1 -2.72281 -0.31038 l -99.441 -38.37237 a 5.40237 5.40237 0 0 1 -3.35921 -5.846 Z" stroke-linecap="round" />
</g>
		<g transform="matrix(1 0 0 1 -14.05 -122.48)"  >
<path style="stroke: none; stroke-width: 1; stroke-dasharray: none; stroke-linecap: butt; stroke-dashoffset: 0; stroke-linejoin: miter; stroke-miterlimit: 4; fill: rgb(63,61,86); fill-rule: nonzero; opacity: 1;"  transform=" translate(-585.95, -327.52)" d="M 499.35216 308.99439 a 0.87724 0.87724 0 0 1 0.268 -0.38623 a 1.05132 1.05132 0 0 1 0.129 -0.08817 c 0.04169 -0.01607 0.08434 -0.04216 0.12611 -0.05828 a 0.87349 0.87349 0 0 1 0.62383 -0.01066 l 2.06994 0.73016 l 101.1157 35.66943 l 23.66513 -2.5004 l 13.24288 -1.39675 l 28.02932 -2.96742 l 2.50639 -0.26279 l 0.48732 -0.05387 a 0.9043 0.9043 0 0 1 0.95216 0.65352 a 0.73938 0.73938 0 0 1 0.02649 0.14313 a 0.893 0.893 0 0 1 -0.55014 0.92188 a 0.98843 0.98843 0 0 1 -0.24752 0.06673 l -3.40944 0.35738 l -27.60268 2.91775 l -9.65046 1.01669 l -27.46045 2.90123 a 1.939 1.939 0 0 1 -0.24081 -0.0029 c -0.04881 -0.01472 -0.09762 -0.02944 -0.15639 -0.04511 L 500.24535 310.2651 l -0.3498 -0.1238 a 0.67025 0.67025 0 0 1 -0.21942 -0.12146 A 0.91016 0.91016 0 0 1 499.35216 308.99439 Z" stroke-linecap="round" />
</g>
		<g transform="matrix(1 0 0 1 -3.68 -56.08)"  >
<path style="stroke: none; stroke-width: 1; stroke-dasharray: none; stroke-linecap: butt; stroke-dashoffset: 0; stroke-linejoin: miter; stroke-miterlimit: 4; fill: rgb(63,61,86); fill-rule: nonzero; opacity: 1;"  transform=" translate(-596.32, -393.92)" d="M 588.91905 442.97456 a 0.89376 0.89376 0 0 1 -0.74251 -1.01574 l 14.51687 -96.33414 a 0.894 0.894 0 0 1 1.017 -0.75056 l 0.008 0.00129 a 0.89377 0.89377 0 0 1 0.74252 1.01574 l -14.51687 96.33414 a 0.894 0.894 0 0 1 -1.017 0.75055 Z" stroke-linecap="round" />
</g>
		<g transform="matrix(1 0 0 1 28.33 -60.7)"  >
<path style="stroke: none; stroke-width: 1; stroke-dasharray: none; stroke-linecap: butt; stroke-dashoffset: 0; stroke-linejoin: miter; stroke-miterlimit: 4; fill: rgb(63,61,86); fill-rule: nonzero; opacity: 1;"  transform=" translate(-628.33, -389.3)" d="M 625.716 436.86342 l -9.6548 1.01888 l 11.29337 -95.5347 s 12.89458 -2.33464 13.23951 -1.39846 C 640.80631 341.50808 625.80805 436.25066 625.716 436.86342 Z" stroke-linecap="round" />
</g>
		<g transform="matrix(1 0 0 1 -47.95 -103.38)"  >
<polygon style="stroke: none; stroke-width: 1; stroke-dasharray: none; stroke-linecap: butt; stroke-dashoffset: 0; stroke-linejoin: miter; stroke-miterlimit: 4; fill: rgb(63,61,86); fill-rule: nonzero; opacity: 1;"  points="-52.15,-36.48 -52.41,7.09 24.71,36.48 52.41,-0.73 -52.15,-36.48 " />
</g>
		<g transform="matrix(1 0 0 1 19.78 -138.99)"  >
<path style="stroke: none; stroke-width: 1; stroke-dasharray: none; stroke-linecap: butt; stroke-dashoffset: 0; stroke-linejoin: miter; stroke-miterlimit: 4; fill: rgb(63,61,86); fill-rule: nonzero; opacity: 1;"  transform=" translate(-619.78, -311.01)" d="M 671.13144 337.72465 a 5.30105 5.30105 0 0 0 -2.49688 -1.73654 l -98.40594 -32.7777 a 5.10582 5.10582 0 0 0 -0.848 -0.20665 a 5.00894 5.00894 0 0 0 -0.95065 -0.07115 l 0.15966 -0.99731 l 0.98511 -0.71323 l 23.36822 -16.9188 l 78.04053 23.91705 l 0.13549 27.05154 Z" stroke-linecap="round" />
</g>
		<g transform="matrix(1 0 0 1 -81.22 -63.47)"  >
<path style="stroke: none; stroke-width: 1; stroke-dasharray: none; stroke-linecap: butt; stroke-dashoffset: 0; stroke-linejoin: miter; stroke-miterlimit: 4; fill: rgb(255,255,255); fill-rule: nonzero; opacity: 1;"  transform=" translate(-518.78, -386.53)" d="M 503.829 380.07963 a 1.51326 1.51326 0 0 1 0.326 0.06843 l 30.19365 9.91686 a 1.50014 1.50014 0 0 1 -0.93555 2.85069 l -30.19364 -9.91685 a 1.50039 1.50039 0 0 1 0.60952 -2.91913 Z" stroke-linecap="round" />
</g>
		<g transform="matrix(1 0 0 1 25.65 100.84)"  >
<circle style="stroke: none; stroke-width: 1; stroke-dasharray: none; stroke-linecap: butt; stroke-dashoffset: 0; stroke-linejoin: miter; stroke-miterlimit: 4; fill: rgb(242,242,242); fill-rule: nonzero; opacity: 1;"  cx="0" cy="0" r="12" />
</g>
		<g transform="matrix(1 0 0 1 -280.35 144.84)"  >
<circle style="stroke: none; stroke-width: 1; stroke-dasharray: none; stroke-linecap: butt; stroke-dashoffset: 0; stroke-linejoin: miter; stroke-miterlimit: 4; fill: rgb(242,242,242); fill-rule: nonzero; opacity: 1;"  cx="0" cy="0" r="12" />
</g>
		<g transform="matrix(1 0 0 1 -30.35 -252.16)"  >
<circle style="stroke: none; stroke-width: 1; stroke-dasharray: none; stroke-linecap: butt; stroke-dashoffset: 0; stroke-linejoin: miter; stroke-miterlimit: 4; fill: rgb(242,242,242); fill-rule: nonzero; opacity: 1;"  cx="0" cy="0" r="12" />
</g>
		<g transform="matrix(1 0 0 1 -35.58 -66.14)"  >
<path style="stroke: none; stroke-width: 1; stroke-dasharray: none; stroke-linecap: butt; stroke-dashoffset: 0; stroke-linejoin: miter; stroke-miterlimit: 4; fill: rgb(255,184,184); fill-rule: nonzero; opacity: 1;"  transform=" translate(-564.42, -383.86)" d="M 589.34024 397.72852 A 11.59947 11.59947 0 0 1 573.433 389.7714 L 532.421 385.62792 l 13.53022 -16.60628 l 36.87128 6.48065 a 11.66236 11.66236 0 0 1 6.5177 22.22623 Z" stroke-linecap="round" />
</g>
		<g transform="matrix(1 0 0 1 -120.88 -128.83)"  >
<path style="stroke: none; stroke-width: 1; stroke-dasharray: none; stroke-linecap: butt; stroke-dashoffset: 0; stroke-linejoin: miter; stroke-miterlimit: 4; fill: rgb(230,230,230); fill-rule: nonzero; opacity: 1;"  transform=" translate(-479.12, -321.17)" d="M 564.115 391.14082 l -95.70849 -8.81836 l -0.13135 -0.15088 L 398.42455 302.135 a 32.95967 32.95967 0 0 1 8.01319 -44.52344 h 0 a 32.92425 32.92425 0 0 1 48.14355 10.209 l 43.02246 75.54443 l 67.56543 27.147 Z" stroke-linecap="round" />
</g>
		<g transform="matrix(1 0 0 1 159.2 -230.05)"  >
<path style="stroke: none; stroke-width: 1; stroke-dasharray: none; stroke-linecap: butt; stroke-dashoffset: 0; stroke-linejoin: miter; stroke-miterlimit: 4; fill: rgb(47,46,65); fill-rule: nonzero; opacity: 1;"  transform=" translate(-759.2, -219.95)" d="M 804.33859 237.22376 c -2.37688 -17.43387 -5.35788 -36.15172 -17.65411 -48.7369 a 41.34992 41.34992 0 0 0 -59.74384 0.61837 c -8.95079 9.54876 -12.90365 22.95672 -13.2654 36.03983 s 2.55205 26.02081 5.78442 38.70347 a 119.28958 119.28958 0 0 0 49.78577 -9.79937 c 3.92617 -1.70407 7.789 -3.63056 11.93689 -4.68634 c 4.14784 -1.05571 7.10454 1.60088 10.96292 3.45335 l 2.118 -4.05545 c 1.73377 3.22659 7.10244 2.27017 9.04978 -0.83224 C 805.26007 244.82608 804.83352 240.853 804.33859 237.22376 Z" stroke-linecap="round" />
</g>
		<g transform="matrix(1 0 0 1 110.83 -121.17)"  >
<path style="stroke: none; stroke-width: 1; stroke-dasharray: none; stroke-linecap: butt; stroke-dashoffset: 0; stroke-linejoin: miter; stroke-miterlimit: 4; fill: rgb(158,97,106); fill-rule: nonzero; opacity: 1;"  transform=" translate(-710.83, -328.83)" d="M 736.532 334.53244 l -69.876 1.49441 a 11.05455 11.05455 0 1 0 -4.93974 15.57383 c 9.26761 0.52674 81.77191 10.81733 86.0974 4.18549 c 4.39027 -6.73106 27.82423 -30.48612 27.82423 -30.48612 l -18.01271 -25.64378 Z" stroke-linecap="round" />
</g>
		<g transform="matrix(1 0 0 1 153.56 -228.36)"  >
<circle style="stroke: none; stroke-width: 1; stroke-dasharray: none; stroke-linecap: butt; stroke-dashoffset: 0; stroke-linejoin: miter; stroke-miterlimit: 4; fill: rgb(158,97,106); fill-rule: nonzero; opacity: 1;"  cx="0" cy="0" r="32.83012" />
</g>
		<g transform="matrix(1 0 0 1 -0.64 -150.82)"  >
<path style="stroke: none; stroke-width: 1; stroke-dasharray: none; stroke-linecap: butt; stroke-dashoffset: 0; stroke-linejoin: miter; stroke-miterlimit: 4; fill: rgb(63,81,181); fill-rule: nonzero; opacity: 1;"  transform=" translate(-599.36, -299.18)" d="M 599.36147 299.184" stroke-linecap="round" />
</g>
		<g transform="matrix(1 0 0 1 174.92 -99.78)"  >
<path style="stroke: none; stroke-width: 1; stroke-dasharray: none; stroke-linecap: butt; stroke-dashoffset: 0; stroke-linejoin: miter; stroke-miterlimit: 4; fill: rgb(63,61,86); fill-rule: nonzero; opacity: 1;"  transform=" translate(-774.92, -350.22)" d="M 806.14195 284.81075 c -3.86888 -7.69981 -5.74873 -17.212 -13.99671 -19.70823 c -5.56965 -1.68563 -28.09691 0.84048 -33.17312 3.6859 c -8.44356 4.73313 -0.79189 13.60234 -5.77332 21.90214 c -5.41517 9.02271 -20.132 27.12978 -25.5472 36.15241 c -3.72279 6.20279 8.8171 24.40947 6.80408 31.358 c -2.01273 6.94848 -2.10962 14.74736 1.31952 21.11722 c 3.06888 5.70141 -1.37137 10.745 1.71521 16.437 c 3.20957 5.91962 7.14849 28.05274 4.16119 34.08785 l -2 6 c 19.84682 1.16609 36.53459 -22.54427 56.25813 -25.04188 c 4.89894 -0.62032 9.98565 -1.43073 14.02251 -4.27435 c 5.94639 -4.18864 8.29717 -11.78923 9.76638 -18.91282 A 159.32576 159.32576 0 0 0 806.14195 284.81075 Z" stroke-linecap="round" />
</g>
		<g transform="matrix(1 0 0 1 196.87 -66.04)"  >
<path style="stroke: none; stroke-width: 1; stroke-dasharray: none; stroke-linecap: butt; stroke-dashoffset: 0; stroke-linejoin: miter; stroke-miterlimit: 4; fill: rgb(158,97,106); fill-rule: nonzero; opacity: 1;"  transform=" translate(-796.87, -383.96)" d="M 835.89793 366.11245 c -2.76443 -7.54563 -7.769 -40.5366 -7.769 -40.5366 l -31.32417 -0.91848 l 15.31443 37.772 l -41.79036 58.50283 s 0.07739 0.12853 0.21808 0.35778 a 11.052 11.052 0 1 0 9.26964 11.74483 a 0.76305 0.76305 0 0 0 0.95807 -0.16445 C 785.42465 427.035 838.66236 373.65815 835.89793 366.11245 Z" stroke-linecap="round" />
</g>
		<g transform="matrix(1 0 0 1 210.83 -138.33)"  >
<path style="stroke: none; stroke-width: 1; stroke-dasharray: none; stroke-linecap: butt; stroke-dashoffset: 0; stroke-linejoin: miter; stroke-miterlimit: 4; fill: rgb(63,61,86); fill-rule: nonzero; opacity: 1;"  transform=" translate(-810.83, -311.67)" d="M 839.0826 345.27741 c -2.87511 -12.13478 -5.77152 -24.33549 -10.61887 -35.82566 s -11.78661 -22.34286 -21.54669 -30.10543 c -3.12048 -2.48179 -6.609 -4.67232 -10.52078 -5.44389 c -3.91147 -0.77165 -8.31967 0.09193 -11.0667 2.98137 c -4.39621 4.62357 -3.07339 12.0451 -1.4611 18.21781 Q 791 322.40224 798.13123 349.70286 q 20.59418 -2.18287 41.188 -4.36591 Z" stroke-linecap="round" />
</g>
		<g transform="matrix(1 0 0 1 150.57 -228.64)"  >
<path style="stroke: none; stroke-width: 1; stroke-dasharray: none; stroke-linecap: butt; stroke-dashoffset: 0; stroke-linejoin: miter; stroke-miterlimit: 4; fill: rgb(47,46,65); fill-rule: nonzero; opacity: 1;"  transform=" translate(-750.57, -221.36)" d="M 793.7871 226.19592 c -1.20908 -7.942 -2.47188 -15.95043 -5.31228 -23.42857 c -2.8404 -7.47821 -7.41882 -14.48249 -13.98647 -18.71882 c -10.39879 -6.70709 -23.862 -5.41352 -35.52074 -1.55544 c -9.01622 2.9837 -17.81761 7.51864 -24.17574 14.8093 c -6.35848 7.29074 -9.92957 17.69379 -7.56439 27.22665 q 18.65464 -4.40738 37.30893 -8.81483 l -1.36137 0.962 a 30.03765 30.03765 0 0 1 16.03083 20.8927 a 31.12209 31.12209 0 0 1 -6.56554 25.84773 q 12.72244 -4.51323 25.44489 -9.0263 c 5.23526 -1.85713 10.83833 -3.997 13.94267 -8.76047 C 795.62723 240.107 794.79091 232.78685 793.7871 226.19592 Z" stroke-linecap="round" />
</g>
</g>
</g>
</svg>